<svg width="215" height="205" viewBox="0 0 215 205" fill="none" xmlns="http://www.w3.org/2000/svg">
<path d="M206.032 5.71533V42.701H150.3L148.292 5.97116L206.032 5.71533Z" fill="#E0E0E0"/>
<path d="M148.292 5.9711V42.6233H204.024V5.9711H148.292Z" fill="white"/>
<path d="M204.293 42.8745H148.029V5.71973H204.293V42.8745ZM148.556 42.3719H203.761V6.22225H148.556V42.3719Z" fill="#E0E0E0"/>
<path d="M197.99 10.5256H154.331V38.0685H197.99V10.5256Z" fill="white"/>
<path d="M197.99 10.5258H197.774H197.156H194.759L185.763 10.5577L154.336 10.6171L154.461 10.4983C154.461 18.9133 154.461 28.2374 154.461 38.0366L154.327 37.9041L197.985 37.9315L197.875 38.0366C197.899 29.6536 197.918 22.7828 197.932 17.9951C197.932 15.6058 197.956 13.7373 197.961 12.4536C197.961 11.8232 197.961 11.3389 197.961 11.0009C197.961 10.6674 197.961 10.4938 197.961 10.4938C197.961 10.4938 197.961 10.6537 197.961 10.978C197.961 11.3024 197.961 11.7912 197.961 12.4125C197.961 13.6917 197.961 15.551 197.99 17.9311C197.99 22.7325 198.023 29.6262 198.047 38.032V38.1371H197.937L154.279 38.1645H154.14V38.032C154.14 28.2328 154.14 18.9088 154.14 10.4938V10.375H154.269L185.869 10.4664L194.836 10.4983H197.209H197.813L197.99 10.5258Z" fill="#E0E0E0"/>
<path d="M148.292 5.87036C148.636 6.02835 148.958 6.2263 149.251 6.45968C149.821 6.85257 150.597 7.40991 151.436 8.04948C152.275 8.68906 153.013 9.29209 153.531 9.74893C153.831 9.97394 154.1 10.235 154.331 10.5256C153.269 9.81371 152.245 9.05135 151.264 8.24136C150.223 7.51004 149.23 6.7182 148.292 5.87036Z" fill="#E0E0E0"/>
<path d="M204.029 5.97095C203.111 6.8288 202.131 7.62413 201.096 8.35108C200.115 9.14425 199.077 9.87088 197.99 10.5256C198.907 9.66656 199.887 8.87115 200.923 8.1455C201.904 7.35233 202.941 6.6257 204.029 5.97095Z" fill="#E0E0E0"/>
<path d="M203.981 42.6276L197.75 37.8262L203.981 42.6276Z" fill="white"/>
<path d="M197.769 37.8262C198.886 38.5182 199.952 39.2813 200.961 40.1104C202.027 40.8779 203.036 41.7143 203.981 42.6138C202.864 41.9219 201.797 41.1587 200.789 40.3297C199.723 39.5622 198.714 38.7257 197.769 37.8262Z" fill="#E0E0E0"/>
<path d="M148.292 42.6231C149.2 41.7722 150.171 40.9844 151.196 40.2658C152.164 39.4792 153.191 38.7616 154.269 38.1187C153.361 38.9686 152.391 39.7549 151.364 40.4714C150.396 41.2584 149.369 41.9775 148.292 42.6231Z" fill="#E0E0E0"/>
<path d="M163.194 19.1048V28.3284H190.667V19.1048H163.194Z" fill="#E0E0E0"/>
<path d="M165.585 203.933H215L215 67.224H165.585V203.933Z" fill="#E0E0E0"/>
<path d="M139.061 203.933H193.164L193.164 67.224H139.061V203.933Z" fill="#F5F5F5"/>
<path d="M172.276 172.032H157.821C157.547 172.032 157.285 171.929 157.092 171.744C156.899 171.56 156.79 171.31 156.79 171.05V170.232H173.307V171.05C173.307 171.31 173.198 171.56 173.005 171.744C172.812 171.929 172.549 172.032 172.276 172.032Z" fill="#E0E0E0"/>
<path d="M141.453 170.232C141.453 170.232 141.453 170.397 141.453 170.725C141.453 171.054 141.453 171.552 141.453 172.192C141.453 173.494 141.453 175.39 141.424 177.834C141.424 182.745 141.391 189.808 141.367 198.456V198.561H141.477L189.689 198.588H189.852V198.456C189.852 188.469 189.852 178.944 189.852 170.273V170.154H189.703L154.916 170.182L144.99 170.205H142.359H141.683H141.463H141.702H142.388H145.043L155.003 170.246L189.703 170.337L189.574 170.214C189.574 178.894 189.574 188.41 189.574 198.396L189.713 198.268H189.684L141.472 198.296L141.578 198.396C141.554 189.776 141.534 182.731 141.52 177.838C141.52 175.39 141.52 173.48 141.496 172.174C141.496 171.525 141.496 171.032 141.496 170.689C141.496 170.346 141.453 170.232 141.453 170.232Z" fill="#E0E0E0"/>
<path d="M157.442 180.826H171.796V177.13H157.442V180.826Z" fill="#E0E0E0"/>
<path d="M172.932 139.14H158.482C158.209 139.14 157.946 139.036 157.753 138.852C157.56 138.668 157.451 138.418 157.451 138.157V137.34H173.963V138.157C173.963 138.418 173.854 138.668 173.661 138.852C173.468 139.036 173.206 139.14 172.932 139.14Z" fill="#E0E0E0"/>
<path d="M141.587 137.335C141.587 137.335 141.587 137.499 141.587 137.828C141.587 138.157 141.587 138.66 141.587 139.295C141.587 140.597 141.587 142.493 141.558 144.937C141.558 149.848 141.525 156.911 141.501 165.563V165.664H141.611L189.823 165.691H189.986V165.563C189.986 155.572 189.986 146.047 189.986 137.381V137.257H189.861L155.074 137.285L145.148 137.312H142.517H141.841H141.621H141.86H142.546H145.201L155.161 137.358L189.861 137.445L189.732 137.326C189.732 146.006 189.732 155.517 189.732 165.508L189.871 165.376H189.842L141.63 165.403L141.736 165.508C141.712 156.883 141.693 149.843 141.678 144.95C141.678 142.502 141.678 140.592 141.678 139.286C141.678 138.642 141.678 138.144 141.678 137.801C141.678 137.458 141.587 137.335 141.587 137.335Z" fill="#E0E0E0"/>
<path d="M158.525 147.71H172.88V144.014H158.525V147.71Z" fill="#E0E0E0"/>
<path d="M172.304 72.7563H157.849C157.576 72.7563 157.314 72.6529 157.12 72.4687C156.927 72.2845 156.819 72.0346 156.819 71.7741V70.9564H173.335V71.7741C173.335 71.9031 173.308 72.0308 173.257 72.15C173.205 72.2692 173.129 72.3775 173.033 72.4687C172.937 72.5599 172.824 72.6322 172.699 72.6816C172.574 72.7309 172.44 72.7563 172.304 72.7563Z" fill="#E0E0E0"/>
<path d="M141.477 70.9519C141.477 70.9519 141.477 71.1164 141.477 71.4453C141.477 71.7742 141.477 72.2768 141.477 72.9118C141.477 74.2138 141.477 76.1096 141.453 78.5537C141.453 83.4648 141.419 90.5275 141.396 99.18V99.2805H141.501L189.718 99.3125H189.881V99.18C189.881 89.189 189.881 79.6639 189.881 70.9976V70.8743H189.703L154.921 70.9017L144.99 70.9291H142.359H141.688H141.463C141.542 70.9331 141.622 70.9331 141.702 70.9291H142.388H145.048L155.003 70.9702L189.703 71.057L189.574 70.9382C189.574 79.6182 189.574 89.1296 189.574 99.1206L189.713 98.9882L141.496 99.0156L141.606 99.1206C141.582 90.4955 141.563 83.4556 141.549 78.5629C141.549 76.1142 141.525 74.2046 141.52 72.8981C141.52 72.2539 141.52 71.756 141.52 71.4133C141.52 71.0707 141.477 70.9519 141.477 70.9519Z" fill="#E0E0E0"/>
<path d="M158.156 80.6641H172.511V76.9682H158.156V80.6641Z" fill="#E0E0E0"/>
<path d="M172.305 105.937H157.849C157.576 105.937 157.314 105.833 157.121 105.649C156.927 105.465 156.819 105.215 156.819 104.954V104.109H173.335V104.927C173.339 105.058 173.315 105.189 173.265 105.311C173.215 105.434 173.14 105.545 173.044 105.639C172.948 105.733 172.833 105.808 172.706 105.859C172.579 105.91 172.442 105.937 172.305 105.937Z" fill="#E0E0E0"/>
<path d="M141.477 104.118C141.477 104.118 141.477 104.283 141.477 104.612C141.477 104.941 141.477 105.439 141.477 106.078C141.477 107.38 141.477 109.276 141.453 111.72C141.453 116.631 141.419 123.694 141.396 132.342V132.442H141.501L189.718 132.47H189.881V132.337C189.881 122.351 189.881 112.826 189.881 104.155V104.036H189.703L154.921 104.064H144.99H142.359H141.688H141.463H141.702H142.388H145.048L155.003 104.105L189.703 104.196L189.574 104.073C189.574 112.753 189.574 122.269 189.574 132.255L189.713 132.127L141.496 132.155L141.606 132.255C141.582 123.635 141.563 116.59 141.549 111.697C141.549 109.249 141.525 107.339 141.52 106.033C141.52 105.384 141.52 104.89 141.52 104.548C141.52 104.205 141.477 104.118 141.477 104.118Z" fill="#E0E0E0"/>
<path d="M158.156 113.835H172.511V110.139H158.156V113.835Z" fill="#E0E0E0"/>
<path d="M62.9935 4.79248H11.187V48.9688H62.9935V4.79248Z" fill="#FAFAFA"/>
<path d="M62.993 48.9688C62.993 48.9688 62.993 48.6855 62.993 48.1465C62.993 47.6074 62.993 46.8125 62.993 45.78C62.993 43.706 62.993 40.6771 62.9595 36.8123C62.9595 29.0963 62.9259 18.0819 62.902 4.79242L63.017 4.90206H11.2153L11.3543 4.76958C11.3543 20.8412 11.3543 35.9626 11.3543 48.9459L11.2297 48.8271L48.7006 48.8865L59.2689 48.9185H62.068H62.7869H63.0362H62.8013H62.092H59.3217L48.7773 48.9459L11.2297 49.0053H11.1099V48.8911C11.1099 35.9077 11.1099 20.7864 11.1099 4.71476V4.58228H11.2536H63.0553H63.1752V4.69649C63.1464 17.9996 63.1272 29.0506 63.1129 36.7894C63.1129 40.6406 63.0889 43.642 63.0841 45.7298C63.0841 46.7531 63.0841 47.5571 63.0841 48.0779C63.0841 48.5987 62.993 48.9688 62.993 48.9688Z" fill="#E0E0E0"/>
<path d="M31.0577 12.6408C31.0577 12.7139 28.3305 12.7733 24.9659 12.7733C21.6013 12.7733 18.8789 12.7139 18.8789 12.6408C18.8789 12.5677 21.6013 12.5083 24.9659 12.5083C28.3305 12.5083 31.0577 12.5677 31.0577 12.6408Z" fill="#E0E0E0"/>
<path d="M53.0048 15.9484C53.0048 16.0215 45.5135 16.0809 36.2728 16.0809C27.0321 16.0809 19.5552 16.0306 19.5552 15.9484C19.5552 15.8662 27.0465 15.8159 36.2872 15.8159C45.5279 15.8159 53.0048 15.8844 53.0048 15.9484Z" fill="#E0E0E0"/>
<path d="M21.1412 21.5767H18.9604V23.6553H21.1412V21.5767Z" fill="#E0E0E0"/>
<path d="M26.5148 21.5767H24.334V23.6553H26.5148V21.5767Z" fill="#E0E0E0"/>
<path d="M31.9879 21.4807H29.8071V23.5593H31.9879V21.4807Z" fill="#E0E0E0"/>
<path d="M37.2599 21.5767H35.0791V23.6553H37.2599V21.5767Z" fill="#E0E0E0"/>
<path d="M42.6324 21.5767H40.4517V23.6553H42.6324V21.5767Z" fill="#E0E0E0"/>
<path d="M48.006 21.5767H45.8252V23.6553H48.006V21.5767Z" fill="#E0E0E0"/>
<path d="M53.3785 21.5767H51.1978V23.6553H53.3785V21.5767Z" fill="#EBEBEB"/>
<path d="M21.1412 25.999H18.9604V28.0776H21.1412V25.999Z" fill="#EBEBEB"/>
<path d="M26.5148 25.999H24.334V28.0776H26.5148V25.999Z" fill="#E0E0E0"/>
<path d="M31.8868 25.999H29.7061V28.0776H31.8868V25.999Z" fill="#EBEBEB"/>
<path d="M37.2599 25.999H35.0791V28.0776H37.2599V25.999Z" fill="#E0E0E0"/>
<path d="M42.6324 25.999H40.4517V28.0776H42.6324V25.999Z" fill="#E0E0E0"/>
<path d="M48.1017 25.9031H45.9209V27.9817H48.1017V25.9031Z" fill="#E0E0E0"/>
<path d="M53.3785 25.999H51.1978V28.0776H53.3785V25.999Z" fill="#E0E0E0"/>
<path d="M21.1412 30.4214H18.9604V32.5H21.1412V30.4214Z" fill="#E0E0E0"/>
<path d="M26.6149 30.3252H24.4341V32.4038H26.6149V30.3252Z" fill="#E0E0E0"/>
<path d="M31.8868 30.4214H29.7061V32.5H31.8868V30.4214Z" fill="#E0E0E0"/>
<path d="M37.2599 30.4214H35.0791V32.5H37.2599V30.4214Z" fill="#EBEBEB"/>
<path d="M42.6324 30.4214H40.4517V32.5H42.6324V30.4214Z" fill="#E0E0E0"/>
<path d="M48.006 30.4214H45.8252V32.5H48.006V30.4214Z" fill="#E0E0E0"/>
<path d="M53.3785 30.4214H51.1978V32.5H53.3785V30.4214Z" fill="#E0E0E0"/>
<path d="M21.1412 34.8433H18.9604V36.9219H21.1412V34.8433Z" fill="#E0E0E0"/>
<path d="M26.5148 34.8433H24.334V36.9219H26.5148V34.8433Z" fill="#E0E0E0"/>
<path d="M31.8868 34.8433H29.7061V36.9219H31.8868V34.8433Z" fill="#E0E0E0"/>
<path d="M37.3605 34.752H35.1797V36.8306H37.3605V34.752Z" fill="#E0E0E0"/>
<path d="M42.6324 34.8433H40.4517V36.9219H42.6324V34.8433Z" fill="#E0E0E0"/>
<path d="M48.006 34.8433H45.8252V36.9219H48.006V34.8433Z" fill="#EBEBEB"/>
<path d="M53.3785 34.8433H51.1978V36.9219H53.3785V34.8433Z" fill="#E0E0E0"/>
<path d="M21.1412 39.2656H18.9604V41.3442H21.1412V39.2656Z" fill="#E0E0E0"/>
<path d="M26.5148 39.2656H24.334V41.3442H26.5148V39.2656Z" fill="#EBEBEB"/>
<path d="M31.8868 39.2656H29.7061V41.3442H31.8868V39.2656Z" fill="#E0E0E0"/>
<path d="M37.2599 39.2656H35.0791V41.3442H37.2599V39.2656Z" fill="#E0E0E0"/>
<path d="M42.6324 39.2656H40.4517V41.3442H42.6324V39.2656Z" fill="#E0E0E0"/>
<path d="M48.1017 39.1741H45.9209V41.2527H48.1017V39.1741Z" fill="#E0E0E0"/>
<path d="M53.3785 39.2656H51.1978V41.3442H53.3785V39.2656Z" fill="#E0E0E0"/>
<path d="M106.54 70.5685L88.6743 76.9795L93.2085 88.4591L111.074 82.0481L106.54 70.5685Z" fill="#EBEBEB"/>
<path d="M106.652 70.696C106.625 70.7713 106.59 70.8433 106.546 70.9108L106.215 71.5047C105.909 72.03 105.482 72.7701 104.96 73.6746C103.877 75.502 102.391 78.0329 100.752 80.8242L100.718 80.8836H100.646L100.483 80.8333L92.201 78.243L89.6943 77.439L89.0185 77.2151C88.9372 77.1925 88.8585 77.1619 88.7837 77.1238C88.8665 77.1384 88.9481 77.1583 89.0281 77.1832L89.7183 77.3796L92.2394 78.1334L100.555 80.6551L100.718 80.7054L100.613 80.7465C102.276 77.9644 103.771 75.4517 104.869 73.6198L106.168 71.4727L106.532 70.8925C106.566 70.8237 106.606 70.758 106.652 70.696Z" fill="#E0E0E0"/>
<path d="M93.3178 88.5858C93.2746 88.5858 93.9936 86.5163 94.933 83.9945C95.8724 81.4728 96.6632 79.4262 96.7063 79.4581C96.7495 79.4901 96.0305 81.5322 95.0959 84.0265C94.1613 86.5209 93.3657 88.5858 93.3178 88.5858Z" fill="#E0E0E0"/>
<path d="M102.592 77.1879C102.616 77.1468 104.562 78.2341 106.934 79.6091C109.307 80.9842 111.21 82.1355 111.186 82.1766C111.162 82.2177 109.216 81.1304 106.843 79.7508C104.471 78.3711 102.568 77.2244 102.592 77.1879Z" fill="#E0E0E0"/>
<path d="M129.677 34.3361C130.133 34.0722 130.625 33.8678 131.138 33.7285L131.44 32.358L133.885 32.3169L134.24 33.6874C134.758 33.808 135.256 33.9955 135.721 34.2448L136.957 33.4727L138.716 35.0899L137.949 36.296C138.226 36.7232 138.44 37.1842 138.587 37.6665L140.025 37.9497L140.068 40.2842L138.63 40.6177C138.502 41.1118 138.307 41.5879 138.05 42.0339L138.86 43.2079L137.158 44.8845L135.898 44.1582C135.44 44.4189 134.949 44.6216 134.436 44.7612L134.134 46.1317L131.69 46.1728L131.335 44.8023C130.818 44.6797 130.32 44.4923 129.854 44.245L128.617 45.017L126.858 43.3952L127.625 42.1938C127.347 41.759 127.133 41.2903 126.988 40.8004L125.55 40.5126L125.507 38.1827L126.945 37.8446C127.072 37.3517 127.267 36.877 127.525 36.433L126.715 35.2544L128.416 33.5778L129.677 34.3087V34.3361ZM130.98 37.4381C130.619 37.7938 130.376 38.2438 130.283 38.7312C130.189 39.2185 130.25 39.7213 130.456 40.1758C130.663 40.6303 131.007 41.0162 131.443 41.2846C131.88 41.553 132.391 41.6918 132.911 41.6835C133.43 41.6752 133.936 41.5201 134.363 41.2379C134.79 40.9556 135.12 40.559 135.31 40.0981C135.501 39.6372 135.543 39.1328 135.433 38.6487C135.323 38.1646 135.064 37.7226 134.69 37.3787C134.444 37.149 134.152 36.9679 133.833 36.8456C133.513 36.7234 133.171 36.6625 132.826 36.6663C132.482 36.6701 132.141 36.7386 131.825 36.8679C131.508 36.9972 131.221 37.1847 130.98 37.4198V37.4381Z" fill="#E0E0E0"/>
<path d="M130.981 37.4198C131.117 37.261 131.279 37.1238 131.46 37.0132C131.776 36.8179 132.131 36.6889 132.504 36.6346C132.876 36.5803 133.256 36.6021 133.618 36.6984C133.981 36.7948 134.318 36.9635 134.607 37.1934C134.896 37.4233 135.13 37.7091 135.294 38.0319C135.531 38.487 135.62 38.9994 135.548 39.503C135.471 40.0454 135.216 40.5506 134.82 40.9466C134.42 41.3393 133.9 41.6002 133.334 41.6912C133.067 41.7323 132.795 41.7323 132.529 41.6912C132.27 41.6605 132.018 41.5928 131.781 41.4902C131.344 41.301 130.967 41.0047 130.688 40.6313C130.45 40.3046 130.296 39.929 130.238 39.5349C130.147 38.9651 130.269 38.383 130.583 37.8903C130.692 37.7182 130.83 37.564 130.99 37.4335C130.99 37.4335 130.832 37.5979 130.631 37.9406C130.349 38.4293 130.248 38.994 130.343 39.5441C130.406 39.9202 130.56 40.277 130.794 40.5857C131.061 40.938 131.422 41.2169 131.839 41.3943C132.063 41.489 132.3 41.5521 132.543 41.5816C132.797 41.6203 133.056 41.6203 133.31 41.5816C133.844 41.4948 134.336 41.2484 134.714 40.878C135.089 40.5015 135.331 40.022 135.405 39.5075C135.465 39.0387 135.383 38.5632 135.17 38.137C134.971 37.7442 134.667 37.4084 134.288 37.1639C133.956 36.953 133.577 36.8199 133.181 36.7756C132.602 36.7042 132.014 36.82 131.513 37.1046C131.148 37.2827 130.995 37.4517 130.981 37.4198Z" fill="#E0E0E0"/>
<path d="M129.677 34.336L129.595 34.2949L129.355 34.1625L128.397 33.6234H128.426L126.739 35.3137V35.268L127.553 36.4421C127.298 36.8844 127.106 37.3578 126.983 37.8491V37.8766H126.954L125.516 38.2192L125.555 38.1689C125.555 38.8999 125.588 39.6811 125.603 40.4988L125.56 40.444L126.997 40.7272H127.031V40.7592C127.177 41.2407 127.39 41.7016 127.664 42.1297V42.1617V42.1937L126.916 43.4591V43.3769L128.68 44.9941H128.593L129.825 44.2175L129.864 44.1946L129.902 44.2175C130.363 44.4613 130.856 44.6456 131.369 44.7657H131.412V44.8068L131.762 46.1773L131.69 46.1271L134.134 46.086L134.062 46.1408C134.158 45.6839 134.263 45.2271 134.364 44.7703V44.7291H134.407C134.913 44.594 135.397 44.3926 135.845 44.1307H135.888H135.927L137.187 44.8616H137.096L138.793 43.185V43.2718C138.52 42.8744 138.246 42.4815 137.983 42.0932L137.959 42.0566V42.0201C138.217 41.5809 138.412 41.1107 138.539 40.6222V40.581H138.582L140.02 40.2475L139.967 40.3161C139.967 39.5212 139.953 38.7445 139.924 37.9862L139.981 38.0502L138.543 37.7578H138.505V37.7167C138.362 37.2354 138.153 36.7745 137.882 36.3461V36.3142V36.2822L138.649 35.0761V35.1492L136.895 33.5274H136.967L135.73 34.2949H135.701H135.673C135.21 34.0497 134.715 33.8638 134.201 33.7422H134.172V33.7147C134.048 33.2168 133.933 32.7691 133.822 32.3442L133.87 32.3762L131.421 32.4036H131.455C131.33 32.9518 131.23 33.4041 131.143 33.7741C130.757 33.8744 130.383 34.0122 130.026 34.1853L129.763 34.3132L129.672 34.3589C129.696 34.3373 129.724 34.3189 129.753 34.3041L130.012 34.1625C130.368 33.9818 130.742 33.8363 131.129 33.7285C131.206 33.3538 131.301 32.9016 131.416 32.3579V32.3305H131.445L133.89 32.2803H133.928V32.3123C134.038 32.7371 134.158 33.1848 134.287 33.6828L134.249 33.6508C134.773 33.7718 135.278 33.9593 135.749 34.2081H135.692L136.928 33.4361L136.967 33.4087L137 33.4406L138.759 35.0579L138.798 35.0898L138.769 35.1309L138.007 36.337V36.273C138.287 36.712 138.503 37.1854 138.649 37.6801L138.601 37.6344L140.039 37.9177H140.092V37.9679C140.092 38.7263 140.125 39.5029 140.14 40.2978V40.3526H140.082L138.644 40.6907L138.697 40.6404C138.568 41.1399 138.37 41.6208 138.107 42.0703V41.9881L138.922 43.1668L138.951 43.2124L138.913 43.2535L137.211 44.9302L137.173 44.9713L137.12 44.9439L135.855 44.2129H135.931C135.471 44.4797 134.974 44.6857 134.455 44.8251L134.508 44.7703C134.402 45.2271 134.302 45.7159 134.206 46.1408V46.2002H134.148L131.704 46.2367H131.646V46.1819C131.522 45.725 131.402 45.2408 131.292 44.8114L131.345 44.8616C130.821 44.737 130.317 44.5481 129.844 44.2997H129.921L128.684 45.0718L128.637 45.0992L128.598 45.0626L126.839 43.4409L126.801 43.4089L126.83 43.3632C127.098 42.9429 127.357 42.5317 127.596 42.1617V42.2257C127.318 41.7847 127.104 41.3098 126.959 40.814L127.002 40.8551L125.564 40.5673H125.516V40.5217C125.516 39.7039 125.488 38.9273 125.478 38.1918V38.1507H125.516L126.954 37.8172L126.916 37.8766C127.045 37.3785 127.243 36.8992 127.505 36.4512V36.4969C127.213 36.072 126.945 35.6746 126.7 35.3137L128.406 33.6462L129.365 34.1944L129.6 34.3406C129.653 34.3132 129.677 34.3315 129.677 34.336Z" fill="#E0E0E0"/>
<path d="M11.1676 199.287C10.2905 198.574 8.33976 196.304 9.84473 193.668C10.3959 192.704 11.5702 192.224 12.6294 191.799C13.6886 191.375 14.8054 191.005 15.6825 190.292C17.3408 188.949 17.7962 186.719 18.8937 184.929C20.1591 182.873 22.5124 181.329 24.9999 181.438C27.8756 181.562 30.2242 183.782 31.3026 186.308C32.381 188.835 32.4193 191.644 32.4385 194.376C32.4385 195.888 32.381 197.574 31.2163 198.611C30.1475 199.552 28.5323 199.561 27.08 199.525L11.5079 199.068" fill="#F5F5F5"/>
<path d="M40.9458 158.482H0L7.37628 200.402C7.52782 201.275 7.9367 202.09 8.55529 202.751C9.17389 203.412 9.97673 203.891 10.8703 204.134L11.0141 204.175C11.1339 204.203 11.2537 204.244 11.3783 204.262C11.653 204.316 11.9321 204.346 12.2123 204.353V204.395L12.4136 204.363H30.6698C31.006 204.363 31.3414 204.332 31.6715 204.271C32.7395 204.113 33.7234 203.625 34.4723 202.882C35.2213 202.139 35.6938 201.183 35.8174 200.16L39.3689 171.274L39.5319 170.122L40.941 158.701L40.9458 158.482ZM33.2244 185.216H29.021L29.4428 173.051H34.3124L33.2244 185.216ZM34.7198 173.051H38.7267L37.2265 185.216H33.6318L34.7198 173.051ZM22.7375 198.707L22.4835 188.136H28.513L28.1439 198.707H22.7375ZM16.1713 188.136H22.0521L22.3062 198.707H17.034L16.1713 188.136ZM16.6505 198.707H11.6995C11.2202 195.852 10.6211 192.142 9.95965 188.136H15.7639L16.6505 198.707ZM15.9604 185.216L14.9682 173.051H21.6879L21.9802 185.216H15.9604ZM22.4116 185.216L22.1192 173.051H29.0354L28.6136 185.216H22.4116ZM22.0473 170.141L21.7742 158.875H29.5339L29.1408 170.132L22.0473 170.141ZM21.64 170.141H14.7046L13.8036 158.866H21.3476L21.64 170.141ZM14.2828 170.132H6.98326C6.72444 168.578 6.48 167.103 6.25474 165.778C5.49267 161.21 5.20509 159.51 5.04693 158.866H13.377L14.2828 170.132ZM14.5225 173.051L15.5146 185.216H9.48995C9.28385 183.983 9.07776 182.736 8.87166 181.484L7.47693 173.051H14.5225ZM9.06817 185.216H5.11403L2.97639 173.051H7.05515C7.67823 176.811 8.3732 180.995 9.06817 185.216ZM9.54746 188.136C10.1514 191.79 10.7409 195.399 11.2873 198.707H7.49131L5.62687 188.136H9.54746ZM28.5513 198.707L28.9204 188.136H32.9752L32.0166 198.707H28.5513ZM29.5434 170.132L29.9365 158.866H35.5825L34.576 170.132H29.5434ZM4.6587 158.866C4.82166 159.679 5.56935 164.115 6.57586 170.132H2.46355L0.47929 158.866H4.6587ZM35.5873 198.707H32.4192L33.3778 188.136H36.8958L35.5873 198.707ZM39.1053 170.132H34.9834L35.9947 158.866H40.4904L39.1053 170.132Z" fill="#E0E0E0"/>
<path d="M207.676 203.933C207.676 204.002 163.792 204.052 109.666 204.052C55.5399 204.052 11.6465 204.002 11.6465 203.933C11.6465 203.865 55.5207 203.814 109.666 203.814C163.812 203.814 207.676 203.869 207.676 203.933Z" fill="#263238"/>
<path d="M165.926 99.9293C165.926 99.9293 171.586 93.7209 173.724 87.5079C175.861 81.2948 174.845 82.0258 174.845 82.0258C174.845 82.0258 171.97 88.0561 169.774 90.9707C167.579 93.8853 163.683 98.1613 163.683 98.1613L165.926 99.9293Z" fill="#455A64"/>
<path d="M164.78 82.9759C164.818 82.9129 164.879 82.8646 164.95 82.8391C165.022 82.8137 165.101 82.8127 165.173 82.8365C165.245 82.8602 165.307 82.9071 165.347 82.9691C165.387 83.0312 165.404 83.1047 165.393 83.1769C165.048 85.3606 164.301 90.4864 164.329 93.7985C164.368 98.111 164.329 99.7785 164.329 99.7785H161.971C161.971 99.7785 162.393 90.861 162.93 88.1428C163.278 86.3435 163.901 84.6026 164.78 82.9759Z" fill="#455A64"/>
<path d="M163.515 99.0566C162.526 96.9241 161.872 94.6644 161.573 92.3502C161.382 90.7604 161.727 88.6133 162.24 85.7535C162.439 84.6981 162.54 83.628 162.542 82.5556C162.539 82.4373 162.496 82.3231 162.418 82.2306C162.341 82.1382 162.233 82.0726 162.113 82.044C161.992 82.0155 161.865 82.0255 161.751 82.0725C161.637 82.1195 161.543 82.201 161.482 82.3043C160.912 83.3069 160.471 84.3714 160.169 85.4748C159.599 88.3026 158.952 89.7143 159.445 92.4005C159.939 95.0867 161.765 99.212 161.765 99.212L163.515 99.0566Z" fill="#455A64"/>
<path d="M161.391 99.2346C161.391 99.2346 155.16 86.5025 154.743 84.6158C154.326 82.729 152.85 78.3708 152.678 78.6175C152.505 78.8642 152.246 81.1666 153.368 83.7935C154.489 86.4203 159.268 99.6229 159.268 99.6229H161.391" fill="#455A64"/>
<path d="M164.195 98.6684C164.195 98.6684 164.258 98.6319 164.368 98.5542C164.478 98.4766 164.646 98.3624 164.847 98.2025C165.427 97.7603 165.984 97.2907 166.515 96.7954C168.26 95.1527 169.772 93.2989 171.011 91.2813C172.256 89.2652 173.293 87.1385 174.107 84.9313C174.423 84.0861 174.649 83.3963 174.797 82.9121C174.874 82.6745 174.927 82.4872 174.96 82.3593C174.984 82.2957 175 82.2298 175.008 82.1628C175.008 82.1628 174.979 82.2268 174.936 82.3501L174.749 82.8984C174.586 83.3552 174.342 84.0633 174.021 84.9039C173.188 87.0952 172.149 89.2099 170.915 91.222C169.678 93.2335 168.178 95.0878 166.453 96.7406C165.791 97.371 165.221 97.8507 164.818 98.1751L164.339 98.5405C164.287 98.5791 164.239 98.6219 164.195 98.6684Z" fill="#263238"/>
<path d="M163.515 92.5604C163.545 92.4374 163.565 92.312 163.572 92.1858C163.601 91.9208 163.639 91.5782 163.682 91.1625C163.783 90.3036 163.936 89.1158 164.162 87.8093C164.387 86.5027 164.641 85.3286 164.818 84.4835L165.044 83.4784C165.078 83.3574 165.101 83.2335 165.111 83.1084C165.064 83.2265 165.024 83.347 164.991 83.4693C164.924 83.7023 164.833 84.0404 164.722 84.4652C164.512 85.3058 164.243 86.4799 164.032 87.791C163.821 89.1021 163.673 90.2899 163.596 91.1533C163.558 91.5873 163.534 91.9391 163.524 92.1812C163.508 92.307 163.504 92.434 163.515 92.5604Z" fill="#263238"/>
<path d="M162.057 82.2266C162.029 82.2778 162.005 82.3313 161.985 82.3865L161.799 82.8433C161.717 83.0489 161.621 83.3001 161.53 83.6016C161.439 83.9032 161.319 84.2367 161.228 84.6204C161.18 84.8123 161.128 85.0133 161.075 85.2189C161.022 85.4244 160.989 85.6483 160.941 85.8767C160.835 86.3335 160.773 86.8178 160.701 87.3295C160.564 88.4498 160.514 89.5782 160.552 90.7055C160.599 91.8338 160.73 92.9574 160.945 94.0678C161.06 94.5749 161.161 95.0592 161.295 95.5023C161.362 95.7262 161.415 95.9591 161.482 96.1465L161.679 96.7358C161.799 97.1104 161.942 97.4393 162.057 97.7317C162.172 98.0241 162.283 98.2708 162.383 98.4672L162.604 98.924C162.627 98.9783 162.656 99.0303 162.69 99.0794C162.69 99.0794 162.69 99.02 162.628 98.9103C162.565 98.8007 162.513 98.6362 162.426 98.4535C162.34 98.2708 162.235 97.9966 162.129 97.7088C162.024 97.421 161.88 97.0875 161.77 96.7129L161.578 96.1236C161.516 95.9226 161.463 95.7033 161.401 95.4795C161.271 95.0226 161.175 94.5658 161.065 94.0496C160.86 92.9457 160.73 91.8301 160.677 90.7101C160.643 89.5891 160.69 88.4672 160.816 87.3523C160.888 86.8406 160.945 86.3518 161.041 85.9041C161.089 85.6757 161.123 85.4473 161.171 85.2508C161.219 85.0544 161.271 84.8397 161.314 84.6524C161.401 84.2686 161.511 83.9306 161.597 83.6291C161.684 83.3275 161.77 83.0763 161.842 82.8661L162.005 82.3865C162.029 82.3354 162.047 82.2817 162.057 82.2266Z" fill="#263238"/>
<path d="M152.75 78.8733C152.75 78.8733 152.75 78.8733 152.75 78.9327V79.0971C152.779 79.2433 152.812 79.458 152.875 79.7321C152.994 80.2804 153.196 81.0661 153.507 82.0163C153.819 82.9666 154.24 84.0904 154.744 85.3239C155.247 86.5573 155.827 87.9004 156.378 89.3303C156.929 90.7602 157.37 92.149 157.778 93.4145C158.185 94.6799 158.559 95.8129 158.928 96.754C159.205 97.495 159.525 98.221 159.887 98.9285C160.011 99.1798 160.126 99.3854 160.203 99.4996L160.289 99.6458C160.298 99.6622 160.31 99.6776 160.323 99.6914C160.317 99.6725 160.309 99.6541 160.299 99.6366L160.227 99.4859C160.16 99.3534 160.054 99.1615 159.934 98.9103C159.576 98.1971 159.256 97.4667 158.976 96.722C158.616 95.7809 158.247 94.6479 157.85 93.3825C157.452 92.1171 157.02 90.7191 156.46 89.2709C155.899 87.8228 155.319 86.4979 154.816 85.269C154.312 84.0401 153.857 82.9255 153.55 81.9752C153.244 81.025 153.018 80.2392 152.879 79.691C152.812 79.4215 152.769 79.2068 152.736 79.0652L152.692 78.9007L152.75 78.8733Z" fill="#263238"/>
<path d="M171.917 76.0636C172.003 75.9863 172.113 75.9382 172.231 75.9269C172.349 75.9156 172.467 75.9416 172.567 76.001C172.668 76.0604 172.745 76.1498 172.787 76.2553C172.829 76.3608 172.833 76.4765 172.798 76.5844C172.582 77.238 172.321 77.8774 172.017 78.4986C171.159 80.23 168.662 86.4384 167.474 89.851C166.285 93.2636 164.646 99.6228 164.646 99.6228L162.134 99.2345C162.134 99.2345 164.43 88.782 166.673 85.0131C168.475 81.9843 170.277 77.6214 171.917 76.0636Z" fill="#455A64"/>
<path d="M166.788 91.9849C166.734 92.0743 166.69 92.1693 166.659 92.2681C166.587 92.4554 166.486 92.7249 166.371 93.0721C166.141 93.7528 165.858 94.7076 165.571 95.7675C165.283 96.8274 165.048 97.7867 164.885 98.4857C164.808 98.8192 164.746 99.0933 164.698 99.3171C164.669 99.4169 164.651 99.5196 164.646 99.6232C164.691 99.5282 164.725 99.4286 164.746 99.3263C164.808 99.1116 164.885 98.8329 164.976 98.5085L165.7 95.7995C165.983 94.7396 166.251 93.7848 166.462 93.0996C166.558 92.7752 166.644 92.5011 166.706 92.2864C166.746 92.1893 166.773 92.0881 166.788 91.9849Z" fill="#263238"/>
<path d="M163.385 99.4311V99.3672L163.414 99.1799C163.438 99.0109 163.462 98.7687 163.514 98.4535C163.606 97.8231 163.773 96.9185 164.042 95.8175C164.362 94.524 164.754 93.2476 165.216 91.9938C165.729 90.5776 166.376 89.0472 167.109 87.462C168.585 84.2961 170.057 81.4911 171.025 79.4125C171.504 78.38 171.897 77.5348 172.146 76.9455C172.271 76.6486 172.362 76.4202 172.429 76.2648C172.458 76.1917 172.477 76.1323 172.496 76.0867C172.516 76.041 172.52 76.0227 172.496 76.0227L172.468 76.0821C172.444 76.1278 172.42 76.1826 172.386 76.2557C172.309 76.4156 172.209 76.6394 172.079 76.9227C171.816 77.5074 171.423 78.348 170.924 79.3759C169.932 81.4408 168.446 84.2412 166.965 87.4117C166.232 88.9969 165.59 90.5319 165.082 91.9573C164.622 93.2144 164.238 94.4956 163.931 95.7947C163.725 96.6712 163.565 97.5571 163.452 98.4489C163.409 98.7596 163.395 99.0108 163.375 99.1753V99.3626C163.379 99.4083 163.382 99.4311 163.385 99.4311Z" fill="#263238"/>
<path d="M162.134 99.2349C162.175 99.1033 162.203 98.9689 162.221 98.8328C162.268 98.5542 162.336 98.1841 162.417 97.7364C162.59 96.8227 162.853 95.5299 163.232 94.1411C163.61 92.7523 164.032 91.5143 164.358 90.628C164.516 90.1986 164.651 89.8468 164.751 89.5773C164.805 89.4514 164.849 89.3215 164.881 89.189C164.812 89.308 164.753 89.4317 164.703 89.559C164.593 89.8011 164.44 90.1529 164.267 90.596C163.817 91.7475 163.428 92.92 163.102 94.1091C162.724 95.4796 162.475 96.7862 162.321 97.7182C162.249 98.175 162.197 98.5633 162.168 98.8283C162.146 98.9628 162.135 99.0987 162.134 99.2349Z" fill="#263238"/>
<path d="M156.987 110.267H166.779V98.892H156.987V110.267Z" fill="#15B86C"/>
<g opacity="0.3">
<path d="M156.987 110.267H166.779V98.892H156.987V110.267Z" fill="black"/>
</g>
<path d="M160.107 110.267H168.796V98.892H160.107V110.267Z" fill="#15B86C"/>
<path d="M78.7741 5.20907L60.5928 10.7563L64.5161 22.4386L82.6974 16.8913L78.7741 5.20907Z" fill="#15B86C"/>
<path d="M78.8818 5.32251C78.8486 5.39586 78.8085 5.46619 78.762 5.53266C78.671 5.67884 78.5511 5.87072 78.3978 6.10827L77.0318 8.21887L72.4546 15.1583L72.4162 15.2131H72.3491L72.191 15.1537L64.043 12.1751L61.5843 11.2614L60.918 11.0056C60.8384 10.9787 60.7614 10.9451 60.688 10.9051C60.77 10.9205 60.8502 10.9435 60.9276 10.9736L61.6082 11.202L64.0862 12.0746L72.2341 15.0121L72.397 15.0669L72.2916 15.1034L76.9167 8.18689C77.5063 7.3189 77.9856 6.6108 78.3307 6.10827L78.7189 5.54636C78.766 5.46718 78.8205 5.39226 78.8818 5.32251Z" fill="#263238"/>
<path d="M64.6085 22.5543C64.5654 22.5543 65.3946 20.5168 66.4586 18.0453C67.5226 15.5738 68.4285 13.5819 68.4716 13.6002C68.5148 13.6185 67.6904 15.6377 66.6216 18.1092C65.5527 20.5807 64.6661 22.5725 64.6085 22.5543Z" fill="#263238"/>
<path d="M74.4818 11.6085C74.5105 11.5719 76.3989 12.7506 78.6899 14.2399C80.981 15.7292 82.831 16.9809 82.8023 16.9809C82.7735 16.9809 80.8851 15.8434 78.5941 14.3541C76.3031 12.8648 74.453 11.6496 74.4818 11.6085Z" fill="#263238"/>
<path d="M159.105 30.535L145.575 25.0849C145.132 24.9001 144.784 24.5571 144.605 24.1298C144.425 23.7025 144.429 23.2252 144.616 22.8007L152.553 4.94745C152.746 4.52518 153.106 4.19243 153.554 4.02138C154.003 3.85034 154.504 3.85479 154.949 4.03377L163.534 7.49661L167.272 16.7065L161.521 29.6487C161.321 30.0698 160.956 30.3991 160.504 30.565C160.052 30.7309 159.549 30.7202 159.105 30.535Z" fill="#15B86C"/>
<path d="M163.529 7.45093L161.295 12.4762C161.207 12.6732 161.16 12.8849 161.158 13.0991C161.156 13.3134 161.198 13.5259 161.282 13.7246C161.366 13.9233 161.491 14.1042 161.648 14.2568C161.806 14.4095 161.994 14.5309 162.201 14.6142L167.267 16.6608L163.529 7.45093Z" fill="#15B86C"/>
<g opacity="0.2">
<path d="M161.166 12.947C161.003 13.3291 160.981 13.7524 161.103 14.148C161.225 14.5436 161.483 14.8883 161.837 15.1261C161.884 15.1637 161.934 15.1988 161.985 15.2312C162.599 15.6104 166.625 18.1093 166.668 18.0134L167.267 16.6428L162.201 14.5962C162.201 14.5962 160.945 14.0617 161.166 12.947Z" fill="black"/>
</g>
<g opacity="0.3">
<path d="M163.529 7.45093L161.295 12.4762C161.207 12.6732 161.16 12.8849 161.158 13.0991C161.156 13.3134 161.198 13.5259 161.282 13.7246C161.366 13.9233 161.491 14.1042 161.648 14.2568C161.806 14.4095 161.994 14.5309 162.201 14.6142L167.267 16.6608L163.529 7.45093Z" fill="white"/>
</g>
<path d="M160.251 11.8368C159.16 11.5342 158.096 11.1508 157.068 10.6901C156.006 10.3079 154.976 9.84978 153.986 9.31958C155.079 9.61925 156.145 10.0027 157.174 10.4662C158.235 10.8455 159.264 11.3038 160.251 11.8368Z" fill="#FAFAFA"/>
<path d="M163.031 16.2866C163.002 16.3506 160.672 15.4734 157.825 14.3222C154.979 13.171 152.697 12.1933 152.726 12.1248C152.755 12.0563 155.084 12.9426 157.931 14.0892C160.778 15.2359 163.059 16.2227 163.031 16.2866Z" fill="#FAFAFA"/>
<path d="M162.906 19.0365C162.877 19.1005 160.337 18.1229 157.236 16.8848C154.135 15.6468 151.643 14.5778 151.672 14.5001C151.7 14.4225 154.236 15.4138 157.342 16.6518C160.447 17.8899 162.935 18.968 162.906 19.0365Z" fill="#FAFAFA"/>
<path d="M161.904 21.275C161.875 21.3389 159.34 20.3613 156.239 19.1233C153.138 17.8852 150.646 16.8025 150.67 16.7386C150.694 16.6746 153.239 17.6522 156.34 18.8903C159.441 20.1283 161.938 21.2065 161.904 21.275Z" fill="#FAFAFA"/>
<path d="M160.917 23.5089C160.888 23.5775 158.348 22.5953 155.247 21.3618C152.146 20.1283 149.654 19.041 149.682 18.9771C149.711 18.9131 152.247 19.8908 155.352 21.1288C158.458 22.3668 160.946 23.445 160.917 23.5089Z" fill="#FAFAFA"/>
<path d="M159.92 25.7475C159.891 25.816 157.351 24.8338 154.25 23.6003C151.149 22.3669 148.657 21.2796 148.685 21.2156C148.714 21.1517 151.254 22.1293 154.355 23.3628C157.456 24.5962 159.949 25.6835 159.92 25.7475Z" fill="#FAFAFA"/>
<path d="M113.601 34.3224C123.488 34.3224 131.503 26.6831 131.503 17.2595C131.503 7.83587 123.488 0.196533 113.601 0.196533C103.714 0.196533 95.6997 7.83587 95.6997 17.2595C95.6997 26.6831 103.714 34.3224 113.601 34.3224Z" fill="white"/>
<path d="M131.503 17.2597C131.503 17.2597 131.503 17.1683 131.474 16.9856C131.445 16.8029 131.44 16.5288 131.416 16.1724C131.416 15.9943 131.392 15.7978 131.378 15.5785C131.364 15.3593 131.306 15.1217 131.268 14.8659C131.187 14.2718 131.062 13.684 130.894 13.107C130.476 11.5112 129.807 9.98485 128.91 8.57977C127.61 6.51565 125.866 4.73728 123.794 3.36169C121.721 1.98609 119.366 1.04447 116.884 0.598785C116.142 0.467227 115.391 0.384799 114.636 0.352091C114.253 0.352091 113.865 0.301838 113.476 0.306406L112.297 0.365796C112.101 0.365796 111.9 0.365797 111.703 0.402344L111.109 0.489143C110.716 0.5531 110.313 0.598784 109.915 0.676447C108.284 1.02579 106.706 1.57554 105.223 2.31193C104.849 2.5038 104.49 2.73222 104.116 2.94237C103.934 3.05201 103.742 3.14795 103.565 3.27129L103.042 3.6459C101.591 4.6504 100.322 5.87409 99.2846 7.26864L98.8772 7.78943L98.5178 8.34678L98.1583 8.88585C98.0316 9.06948 97.9194 9.26189 97.8228 9.46146C97.6263 9.85892 97.425 10.2564 97.2189 10.6584L96.7396 11.9101C96.1547 13.6396 95.8445 15.4428 95.8194 17.2597C95.8446 19.0752 96.1547 20.8768 96.7396 22.6047C96.8978 23.025 97.0607 23.4453 97.2189 23.861C97.3771 24.2768 97.6215 24.6605 97.8228 25.0534C97.9183 25.255 98.0305 25.449 98.1583 25.6336L98.5178 26.1955L98.8725 26.7528L99.2846 27.2736C99.8163 27.966 100.398 28.6223 101.024 29.238C101.658 29.8251 102.333 30.3715 103.042 30.8735L103.565 31.2481C103.742 31.3715 103.934 31.4674 104.116 31.5771C104.49 31.7872 104.849 32.0339 105.223 32.2075C106.706 32.9439 108.284 33.4936 109.915 33.843C110.313 33.9252 110.716 33.9663 111.114 34.0303L111.703 34.1171C111.904 34.1171 112.101 34.1171 112.297 34.1536L113.496 34.2222C113.884 34.2222 114.272 34.1902 114.655 34.181C115.41 34.1468 116.161 34.0629 116.903 33.9298C119.386 33.4858 121.741 32.5448 123.814 31.169C125.887 29.7933 127.63 28.014 128.929 25.9488C129.818 24.5455 130.481 23.0223 130.894 21.4307C131.062 20.8537 131.187 20.2659 131.268 19.6718C131.306 19.416 131.354 19.1784 131.378 18.9592C131.402 18.7399 131.407 18.5434 131.416 18.3653C131.442 18.012 131.461 17.7424 131.474 17.5567C131.474 17.3739 131.503 17.278 131.503 17.278C131.503 17.278 131.503 17.3739 131.503 17.5567C131.503 17.7394 131.503 18.0135 131.474 18.3653C131.474 18.548 131.474 18.7444 131.445 18.9683C131.416 19.1921 131.383 19.4251 131.344 19.681C131.271 20.2716 131.152 20.8563 130.99 21.4307C130.584 23.0395 129.923 24.58 129.029 25.999C127.731 28.0927 125.98 29.899 123.892 31.2979C121.805 32.6968 119.429 33.6563 116.923 34.1125C116.172 34.2469 115.413 34.3323 114.651 34.3683C114.262 34.3683 113.869 34.4186 113.476 34.414L112.283 34.3592C112.082 34.3592 111.88 34.3592 111.679 34.3227L111.099 34.2222C110.697 34.1582 110.289 34.1171 109.887 34.0348C109.073 33.865 108.272 33.6421 107.49 33.3679C106.683 33.0934 105.897 32.7668 105.137 32.3902C104.758 32.1938 104.389 31.9654 104.015 31.7507C103.828 31.6364 103.632 31.5405 103.454 31.4172L102.927 31.038C102.208 30.5299 101.524 29.9774 100.881 29.3842C100.244 28.7595 99.6533 28.094 99.1121 27.3924L98.6951 26.867L98.3309 26.3006L97.9714 25.7295C97.8412 25.5439 97.7274 25.3483 97.6311 25.1448C97.4298 24.7427 97.2237 24.3407 97.0224 23.9341L96.5431 22.6596C95.9523 20.9076 95.6389 19.0815 95.6133 17.2414C95.628 15.4075 95.9301 13.5859 96.5096 11.837L96.9888 10.567L97.6023 9.35182C97.6981 9.14889 97.8102 8.95338 97.9378 8.76707L98.3021 8.20059L98.6616 7.63411L99.0785 7.10417C99.6211 6.40501 100.212 5.74112 100.847 5.11692C101.491 4.5237 102.174 3.97127 102.894 3.46317L103.421 3.08399C103.598 2.96064 103.795 2.86471 103.982 2.7505C104.356 2.54035 104.725 2.29366 105.103 2.11549C106.607 1.37277 108.205 0.818449 109.858 0.466301C110.26 0.388638 110.668 0.342955 111.07 0.278997L111.67 0.192197C111.871 0.192197 112.072 0.192197 112.273 0.15565L113.467 0.10083C113.86 0.10083 114.248 0.132808 114.636 0.146513C115.4 0.184515 116.161 0.269974 116.913 0.402344C119.419 0.858585 121.795 1.81803 123.883 3.21692C125.97 4.61581 127.721 6.42212 129.02 8.51581C129.913 9.93484 130.574 11.4753 130.98 13.0842C131.142 13.6661 131.259 14.2585 131.33 14.8567C131.368 15.1171 131.411 15.3547 131.431 15.574L131.459 16.1724C131.459 16.5242 131.483 16.7937 131.488 16.9856C131.493 17.1775 131.503 17.2597 131.503 17.2597Z" fill="#263238"/>
<path d="M122.09 16.7796C121.855 16.8617 121.615 16.9274 121.371 16.976L119.372 17.4329C117.68 17.8075 115.332 18.3146 112.705 18.8628L112.557 18.8948V18.2324C112.557 15.5598 112.557 13.1386 112.59 11.3798C112.59 10.5392 112.624 9.84022 112.633 9.30572C112.626 9.05208 112.642 8.79834 112.681 8.54736C112.717 8.79863 112.733 9.05214 112.729 9.30572C112.729 9.84022 112.753 10.5392 112.768 11.3798C112.768 13.134 112.806 15.5553 112.806 18.2324V18.7303L112.652 18.6115C115.279 18.0679 117.632 17.5882 119.334 17.241L121.347 16.8618C121.591 16.8126 121.84 16.785 122.09 16.7796Z" fill="#263238"/>
<path d="M132.783 24.2947C132.8 24.1994 132.827 24.1061 132.864 24.016C132.917 23.8379 133.027 23.5592 133.123 23.2394C133.431 22.281 133.665 21.3022 133.823 20.3111C134.37 17.0361 134.043 13.6823 132.87 10.56C131.697 7.43775 129.717 4.64792 127.113 2.44866C126.332 1.78343 125.502 1.17272 124.63 0.621302C124.323 0.415724 124.069 0.278672 123.911 0.164462C123.823 0.116232 123.74 0.0612265 123.662 0C123.759 0.02764 123.851 0.0692338 123.935 0.123347C124.103 0.214715 124.366 0.33806 124.683 0.534501C125.583 1.06273 126.436 1.66175 127.232 2.32531C129.892 4.51875 131.911 7.33068 133.094 10.4878C134.276 13.645 134.582 17.04 133.981 20.343C133.811 21.3328 133.556 22.3076 133.219 23.2577C133.104 23.5957 132.979 23.8516 132.912 24.0252C132.88 24.1194 132.836 24.2099 132.783 24.2947Z" fill="#263238"/>
<path d="M136.214 15.898C136.176 15.898 136.152 15.2173 136.008 14.13C135.816 12.7162 135.479 11.3238 135.002 9.9728C134.52 8.62746 133.898 7.33124 133.147 6.10338C132.562 5.15772 132.14 4.60951 132.188 4.58667C132.317 4.68958 132.43 4.80958 132.524 4.943C132.72 5.1897 133.003 5.5506 133.31 6.01201C134.125 7.22686 134.785 8.53055 135.275 9.89514C135.768 11.2596 136.09 12.675 136.233 14.1118C136.286 14.66 136.301 15.1077 136.301 15.4183C136.298 15.5815 136.269 15.7434 136.214 15.898Z" fill="#263238"/>
<path d="M95.7287 7.37817C95.7001 7.46933 95.6599 7.55678 95.6089 7.63857C95.5226 7.8076 95.374 8.04516 95.2207 8.36951C93.4158 11.7873 92.6875 15.63 93.1239 19.4336C93.5602 23.2372 95.1424 26.8391 97.6794 29.8044C98.3398 30.5828 99.0574 31.3156 99.8266 31.9972C100.095 32.2439 100.306 32.4175 100.464 32.5454C100.541 32.6073 100.613 32.6745 100.68 32.7465C100.59 32.7017 100.506 32.6465 100.431 32.582C100.277 32.4678 100.042 32.3033 99.7643 32.0658C98.9638 31.4063 98.2216 30.6851 97.5452 29.9095C95.2833 27.3416 93.7576 24.2591 93.1168 20.9623C92.4759 17.6655 92.7417 14.2667 93.8882 11.0968C94.2263 10.142 94.648 9.21592 95.1488 8.3284C95.3165 8.00861 95.4795 7.77562 95.5753 7.61573C95.6195 7.53263 95.6708 7.45317 95.7287 7.37817Z" fill="#263238"/>
<path d="M90.9403 15.1489C90.9834 15.1489 90.8923 15.8296 90.854 16.926C90.8031 18.3498 90.9043 19.7749 91.1559 21.1792C91.4127 22.5849 91.8173 23.9624 92.3638 25.2908C92.7807 26.3095 93.1067 26.9171 93.0683 26.9354C92.9605 26.8117 92.8702 26.675 92.7999 26.5288C92.6418 26.2593 92.4309 25.8618 92.2008 25.3547C91.599 24.0383 91.1646 22.6579 90.9067 21.2432C90.6522 19.8224 90.575 18.3778 90.6767 16.9397C90.7198 16.387 90.7773 15.9438 90.83 15.6377C90.8435 15.4708 90.8805 15.3064 90.9403 15.1489Z" fill="#263238"/>
<path d="M128.421 20.06C127.745 19.9275 127.199 19.8133 127.199 19.8087C127.199 19.8042 127.75 19.9047 128.426 20.0372C129.102 20.1696 129.648 20.2793 129.643 20.2839C129.638 20.2884 129.092 20.2108 128.421 20.06Z" fill="#263238"/>
<path d="M126.686 24.3769C126.092 24.0434 125.612 23.7693 125.612 23.7647C125.612 23.7601 126.092 24.0251 126.696 24.3586C127.299 24.6921 127.769 24.9662 127.764 24.9708C127.76 24.9753 127.275 24.7104 126.686 24.3769Z" fill="#263238"/>
<path d="M123.561 27.9037C123.11 27.4011 122.751 26.99 122.755 26.99C122.76 26.99 123.129 27.3874 123.575 27.9037C124.021 28.4199 124.385 28.8173 124.375 28.8173C124.366 28.8173 124.04 28.4016 123.561 27.9037Z" fill="#263238"/>
<path d="M119.435 30.2793C119.18 29.6671 118.979 29.1692 118.984 29.1692C118.989 29.1692 119.2 29.658 119.463 30.2702C119.727 30.8823 119.919 31.3757 119.909 31.3803C119.899 31.3849 119.689 30.8869 119.435 30.2793Z" fill="#263238"/>
<path d="M114.708 31.2434C114.68 30.5856 114.66 30.0557 114.665 30.0557C114.67 30.0557 114.704 30.5856 114.732 31.2434C114.761 31.9013 114.785 32.4312 114.78 32.4312C114.776 32.4312 114.742 31.9013 114.708 31.2434Z" fill="#263238"/>
<path d="M109.911 30.6905C110.102 30.0601 110.26 29.553 110.27 29.553C110.28 29.553 110.126 30.0692 109.935 30.6996C109.743 31.3301 109.58 31.8372 109.57 31.8372C109.561 31.8372 109.714 31.3209 109.911 30.6905Z" fill="#263238"/>
<path d="M105.554 28.6896C105.952 28.1505 106.278 27.7211 106.287 27.7256C106.297 27.7302 105.971 28.1825 105.573 28.7033C105.175 29.2241 104.869 29.6535 104.869 29.6535C104.869 29.6535 105.156 29.2241 105.554 28.6896Z" fill="#263238"/>
<path d="M102.127 25.446C102.683 25.0577 103.138 24.7516 103.143 24.7562C103.148 24.7607 102.698 25.0759 102.137 25.4643C101.576 25.8526 101.125 26.1541 101.121 26.1495C101.116 26.1449 101.566 25.8297 102.127 25.446Z" fill="#263238"/>
<path d="M99.9801 21.3164C100.642 21.1246 101.178 20.9738 101.178 20.9784C101.178 20.9829 100.646 21.1474 99.9849 21.3393C99.3235 21.5311 98.7915 21.6773 98.7915 21.6728C98.7915 21.6682 99.3235 21.5083 99.9801 21.3164Z" fill="#263238"/>
<path d="M99.3619 16.7475C100.052 16.7475 100.608 16.793 100.608 16.8021C100.608 16.8112 100.047 16.8021 99.3619 16.7703C98.6765 16.7385 98.111 16.7203 98.1158 16.7157C98.1205 16.7112 98.6717 16.7203 99.3619 16.7475Z" fill="#263238"/>
<path d="M100.33 12.2296C100.977 12.4672 101.495 12.6591 101.495 12.6865C101.495 12.7139 100.968 12.5037 100.321 12.2708C99.6735 12.0378 99.1606 11.8413 99.1606 11.8368C99.1606 11.8322 99.6879 11.9967 100.33 12.2296Z" fill="#263238"/>
<path d="M102.788 8.25969C103.315 8.68455 103.747 9.03175 103.747 9.03632C103.747 9.04088 103.311 8.70282 102.788 8.27796C102.266 7.8531 101.83 7.51047 101.83 7.50591C101.83 7.50134 102.256 7.8394 102.788 8.25969Z" fill="#263238"/>
<path d="M106.46 5.27203C106.815 5.83394 107.102 6.29078 107.097 6.29535C107.093 6.29992 106.795 5.83851 106.441 5.28117C106.086 4.72382 105.798 4.26241 105.803 4.25785C105.808 4.25328 106.105 4.71012 106.46 5.27203Z" fill="#263238"/>
<path d="M110.951 3.57227C111.095 4.21641 111.21 4.73721 111.205 4.73721C111.2 4.73721 111.076 4.22098 110.927 3.57683C110.778 2.93269 110.668 2.41646 110.678 2.41189C110.687 2.40733 110.807 2.93269 110.951 3.57227Z" fill="#263238"/>
<path d="M115.777 3.36241C115.696 4.01569 115.624 4.54106 115.619 4.54106C115.614 4.54106 115.672 4.01112 115.758 3.35784C115.844 2.70456 115.911 2.1792 115.916 2.1792C115.921 2.1792 115.863 2.7 115.777 3.36241Z" fill="#263238"/>
<path d="M120.421 4.65532C120.124 5.24464 119.875 5.72433 119.87 5.71976C119.865 5.71519 120.1 5.23551 120.397 4.64162C120.695 4.04773 120.944 3.57261 120.953 3.57718C120.963 3.58175 120.719 4.07057 120.421 4.65532Z" fill="#263238"/>
<path d="M124.366 7.3138C123.886 7.77064 123.484 8.15439 123.479 8.14982C123.474 8.14525 123.867 7.76151 124.351 7.29553C124.835 6.82955 125.233 6.45495 125.238 6.45951C125.243 6.46408 124.855 6.84783 124.366 7.3138Z" fill="#263238"/>
<path d="M127.194 11.0467C126.576 11.3391 126.073 11.5721 126.073 11.5675C126.073 11.5629 126.552 11.3208 127.185 11.0284C127.817 10.7361 128.306 10.5031 128.306 10.5076C128.306 10.5122 127.813 10.7543 127.194 11.0467Z" fill="#263238"/>
<path d="M128.603 15.4549L127.362 15.5965C127.362 15.5965 127.913 15.5143 128.598 15.432C129.284 15.3498 129.835 15.2813 129.835 15.2859C129.835 15.2904 129.284 15.3681 128.603 15.4549Z" fill="#263238"/>
<path d="M137.461 13.8789C137.195 14.6503 136.851 15.3954 136.435 16.1037L136.406 16.154L136.311 16.3413L136.191 16.1677C135.708 15.5261 135.294 14.8405 134.954 14.121C135.507 14.7106 135.998 15.3502 136.421 16.0306H136.205L136.234 15.9758C136.571 15.2406 136.982 14.5384 137.461 13.8789Z" fill="#263238"/>
<path d="M145.608 52.459H89.2775C87.9542 52.459 86.6852 52.96 85.7495 53.8519C84.8138 54.7438 84.2881 55.9534 84.2881 57.2147C84.2881 58.476 84.8138 59.6856 85.7495 60.5775C86.6852 61.4693 87.9542 61.9704 89.2775 61.9704H115.638L121.539 67.3291V61.9704H145.608C146.264 61.9704 146.913 61.8474 147.518 61.6084C148.123 61.3694 148.673 61.0191 149.137 60.5775C149.6 60.1359 149.967 59.6116 150.218 59.0346C150.469 58.4576 150.598 57.8392 150.598 57.2147C150.598 56.5902 150.469 55.9717 150.218 55.3948C149.967 54.8178 149.6 54.2935 149.137 53.8519C148.673 53.4103 148.123 53.06 147.518 52.821C146.913 52.582 146.264 52.459 145.608 52.459Z" fill="#FAFAFA"/>
<path d="M145.608 52.4588H145.791C145.973 52.4606 146.156 52.4743 146.337 52.4999C147.049 52.5909 147.731 52.8295 148.336 53.1989C148.914 53.5498 149.411 54.0099 149.795 54.5508C150.18 55.0916 150.445 55.7018 150.572 56.3438C150.7 56.9857 150.689 57.6458 150.539 58.2835C150.39 58.9211 150.104 59.5228 149.702 60.0515C149.157 60.7742 148.414 61.34 147.554 61.687C147.094 61.8647 146.61 61.983 146.116 62.0387C145.604 62.0753 145.096 62.0616 144.568 62.0661H137.782H121.529L121.639 61.9611C121.639 63.6422 121.639 65.4604 121.639 67.3198V67.571L121.447 67.3974L115.543 62.0387L115.624 62.0707H93.222H89.311C88.0054 62.0837 86.7441 61.6197 85.7861 60.7741C84.8281 59.9285 84.2462 58.7654 84.1597 57.5236C84.0732 56.2819 84.4887 55.0556 85.321 54.0967C86.1533 53.1379 87.3392 52.5191 88.6352 52.3674C89.2582 52.3035 89.8574 52.3355 90.4613 52.3263H99.2323L123.369 52.3537L139.665 52.3903L144.089 52.4131H145.239C145.498 52.4131 145.632 52.4131 145.632 52.4131H145.239H144.089L139.665 52.436L123.369 52.4771H99.2323H90.4613C89.8621 52.4771 89.2487 52.4771 88.6687 52.5182C87.4682 52.6604 86.367 53.226 85.5821 54.1034C84.9775 54.7796 84.5893 55.6069 84.4634 56.4871C84.3375 57.3674 84.4793 58.2636 84.8719 59.0693C85.2645 59.875 85.8915 60.5564 86.6784 61.0326C87.4652 61.5087 88.3789 61.7596 89.311 61.7555H93.222H115.624H115.672L115.705 61.7829L121.606 67.1462L121.414 67.2239C121.414 65.3645 121.414 63.5463 121.414 61.8651V61.7646H121.519H137.772H144.559C145.081 61.7646 145.599 61.7646 146.092 61.7646C146.574 61.7136 147.046 61.6015 147.497 61.4311C148.49 61.0325 149.32 60.3357 149.861 59.4466C150.401 58.5574 150.622 57.5245 150.49 56.5046C150.358 55.4848 149.881 54.5339 149.131 53.7962C148.38 53.0586 147.397 52.5746 146.332 52.4177C145.858 52.4634 145.608 52.4954 145.608 52.4588Z" fill="#263238"/>
<path d="M113.913 60.5769H89.2439C88.7805 60.5775 88.3215 60.491 87.8932 60.3222C87.4649 60.1535 87.0758 59.9058 86.7481 59.5935C86.4204 59.2811 86.1606 58.9102 85.9836 58.502C85.8065 58.0938 85.7157 57.6563 85.7163 57.2146C85.7189 56.3249 86.0918 55.4724 86.7532 54.8446C87.4146 54.2167 88.3104 53.8648 89.2439 53.866H113.913C114.376 53.8654 114.835 53.9518 115.263 54.1203C115.69 54.2887 116.079 54.536 116.407 54.8478C116.735 55.1597 116.995 55.53 117.172 55.9377C117.349 56.3454 117.441 56.7824 117.441 57.2237C117.44 57.6647 117.348 58.1012 117.171 58.5083C116.993 58.9155 116.733 59.2853 116.405 59.5967C116.078 59.9081 115.689 60.1549 115.261 60.3231C114.834 60.4913 114.376 60.5775 113.913 60.5769Z" fill="#15B86C"/>
<path d="M115.978 47.5571L115.144 49.9875H114.512L113.951 48.3429L113.371 49.9875H112.743L111.904 47.5571H112.537L113.112 49.2657L113.711 47.5571H114.258L114.842 49.2794L115.432 47.5571H115.978Z" fill="#263238"/>
<path d="M116.117 48.7721C116.102 48.5066 116.171 48.2427 116.314 48.0147C116.458 47.7867 116.67 47.605 116.923 47.4931C117.176 47.3811 117.459 47.3442 117.734 47.3869C118.01 47.4296 118.265 47.5501 118.468 47.7328C118.671 47.9155 118.811 48.1519 118.872 48.4116C118.932 48.6713 118.909 48.9422 118.806 49.1894C118.703 49.4366 118.525 49.6487 118.294 49.7983C118.064 49.9479 117.791 50.028 117.512 50.0284C117.333 50.0384 117.153 50.0133 116.984 49.9546C116.815 49.896 116.661 49.805 116.53 49.6873C116.399 49.5697 116.295 49.4278 116.224 49.2704C116.154 49.113 116.117 48.9434 116.117 48.7721ZM118.308 48.7721C118.304 48.623 118.254 48.4782 118.164 48.3559C118.075 48.2336 117.949 48.1393 117.804 48.0847C117.658 48.0301 117.498 48.0176 117.345 48.0489C117.192 48.0802 117.052 48.1538 116.943 48.2606C116.834 48.3673 116.76 48.5025 116.731 48.649C116.701 48.7956 116.718 48.9472 116.779 49.0847C116.84 49.2222 116.942 49.3396 117.072 49.4221C117.202 49.5047 117.356 49.5487 117.512 49.5488C117.617 49.5489 117.722 49.5286 117.818 49.4891C117.915 49.4497 118.002 49.3919 118.075 49.3192C118.148 49.2466 118.204 49.1606 118.241 49.0666C118.277 48.9725 118.294 48.8723 118.289 48.7721H118.308Z" fill="#263238"/>
<path d="M120.978 49.9875L120.499 49.3114H119.957V49.9875H119.368V47.5571H120.47C121.151 47.5571 121.577 47.8952 121.577 48.4388C121.585 48.6033 121.538 48.7658 121.443 48.9035C121.349 49.0412 121.211 49.1471 121.05 49.2063L121.625 49.9875H120.978ZM120.422 48.014H119.943V48.8637H120.422C120.782 48.8637 120.964 48.7038 120.964 48.4388C120.964 48.1739 120.782 48.014 120.422 48.014Z" fill="#263238"/>
<path d="M122.957 49.0327L122.612 49.3708V49.9875H122.027V47.5571H122.602V48.6901L123.734 47.5571H124.39L123.331 48.6398L124.453 49.9875H123.762L122.957 49.0327Z" fill="#263238"/>
<path d="M139.147 58.1053H138.418L138.241 58.9824H137.723L137.91 58.1053H135.84L135.907 57.7535L138.275 55.4282H138.898L136.631 57.6713H138.035L138.198 56.8992H138.677L138.514 57.6713H139.224L139.147 58.1053Z" fill="#263238"/>
<path d="M140.681 55.8714L140.374 56.8445H140.733C141.692 56.8445 142.119 57.2191 142.119 57.7947C142.119 58.5302 141.486 59.019 140.532 59.019C140.294 59.0323 140.055 58.9986 139.83 58.92C139.606 58.8414 139.401 58.7196 139.229 58.5622L139.511 58.1693C139.649 58.3012 139.815 58.4039 139.998 58.4708C140.18 58.5377 140.375 58.5673 140.571 58.5576C141.213 58.5576 141.587 58.2881 141.587 57.8358C141.587 57.484 141.323 57.2739 140.628 57.2739H139.727L140.307 55.4146H142.406L142.32 55.8714H140.681Z" fill="#263238"/>
<path d="M142.732 56.5611C142.717 56.4205 142.731 56.2783 142.774 56.143C142.817 56.0078 142.888 55.8822 142.984 55.7738C143.079 55.6655 143.196 55.5766 143.329 55.5125C143.461 55.4484 143.605 55.4104 143.753 55.4007C143.858 55.3967 143.962 55.4144 144.059 55.4526C144.156 55.4908 144.243 55.5487 144.314 55.6221C144.385 55.6955 144.439 55.7828 144.471 55.8779C144.503 55.9729 144.514 56.0736 144.501 56.1728C144.517 56.3131 144.504 56.4552 144.461 56.5905C144.419 56.7257 144.348 56.8513 144.253 56.9598C144.158 57.0682 144.041 57.1572 143.909 57.2213C143.777 57.2855 143.633 57.3235 143.485 57.3331C143.38 57.3371 143.275 57.3193 143.178 57.2811C143.081 57.243 142.994 57.1852 142.923 57.1119C142.851 57.0386 142.797 56.9514 142.764 56.8563C142.731 56.7612 142.721 56.6605 142.732 56.5611ZM146.039 55.4281H146.466L143.212 58.9823H142.775L146.039 55.4281ZM144.17 56.2002C144.17 55.8621 144.007 55.6885 143.739 55.6885C143.308 55.6885 143.097 56.1454 143.097 56.5337C143.097 56.922 143.26 57.0453 143.528 57.0453C143.955 57.0636 144.17 56.6068 144.17 56.2002ZM144.76 58.2377C144.743 58.0972 144.757 57.955 144.8 57.8197C144.843 57.6844 144.914 57.5589 145.01 57.4508C145.105 57.3427 145.223 57.2542 145.355 57.1908C145.488 57.1273 145.633 57.0903 145.781 57.0819C145.885 57.0777 145.989 57.0954 146.086 57.1337C146.183 57.1719 146.27 57.2298 146.34 57.3034C146.411 57.3769 146.464 57.4642 146.496 57.5593C146.527 57.6544 146.537 57.755 146.524 57.8539C146.54 57.994 146.527 58.1359 146.484 58.2709C146.441 58.4059 146.37 58.5312 146.275 58.6393C146.18 58.7473 146.063 58.8359 145.931 58.8996C145.799 58.9632 145.655 59.0007 145.507 59.0097C145.402 59.0153 145.297 58.9986 145.199 58.961C145.101 58.9233 145.013 58.8656 144.941 58.7919C144.869 58.7182 144.816 58.6304 144.783 58.5346C144.751 58.4388 144.741 58.3374 144.755 58.2377H144.76ZM146.198 57.8768C146.198 57.5433 146.03 57.3651 145.766 57.3651C145.34 57.3651 145.119 57.822 145.119 58.2148C145.119 58.6077 145.292 58.7265 145.551 58.7265C145.958 58.7265 146.174 58.2651 146.174 57.8768H146.198Z" fill="#263238"/>
<g opacity="0.3">
<path d="M90.1978 53.8569L87.9116 60.577H90.1978L92.3451 53.8569H90.1978Z" fill="white"/>
</g>
<g opacity="0.3">
<path d="M95.8433 53.8569L93.5571 60.577H95.8433L97.9906 53.8569H95.8433Z" fill="white"/>
</g>
<g opacity="0.3">
<path d="M101.485 53.8569L99.2031 60.577H101.485L103.637 53.8569H101.485Z" fill="white"/>
</g>
<g opacity="0.3">
<path d="M107.131 53.8569L104.85 60.577H107.131L109.283 53.8569H107.131Z" fill="white"/>
</g>
<g opacity="0.3">
<path d="M112.777 53.8569L110.491 60.577H112.777L114.929 53.8569H112.777Z" fill="white"/>
</g>
<path d="M27.2236 148.971C27.2236 148.971 39.3641 154.183 52.0077 154.183C63.712 154.183 76.1016 148.569 76.1016 148.569L27.2236 148.971Z" fill="#E0E0E0"/>
<path d="M53.3254 149.071H48.312V199.127H53.3254V149.071Z" fill="#E0E0E0"/>
<path d="M73.0627 196.189H28.5654V199.122H73.0627V196.189Z" fill="#E0E0E0"/>
<path d="M34.0107 200.086C34.0126 200.727 33.8148 201.355 33.4423 201.889C33.0699 202.423 32.5395 202.839 31.9185 203.086C31.2974 203.332 30.6136 203.397 29.9537 203.273C29.2937 203.149 28.6874 202.84 28.2114 202.387C27.7353 201.934 27.4111 201.357 27.2798 200.728C27.1484 200.099 27.2158 199.447 27.4735 198.855C27.7311 198.263 28.1674 197.756 28.7271 197.401C29.2867 197.045 29.9446 196.856 30.6173 196.856C31.5161 196.858 32.3777 197.198 33.0137 197.804C33.6497 198.409 34.0081 199.23 34.0107 200.086Z" fill="#263238"/>
<path d="M53.7861 200.086C53.7861 200.727 53.5868 201.353 53.2134 201.886C52.84 202.418 52.3093 202.834 51.6883 203.079C51.0674 203.324 50.3841 203.388 49.725 203.263C49.0658 203.138 48.4603 202.83 47.985 202.377C47.5098 201.924 47.1862 201.346 47.055 200.718C46.9239 200.09 46.9912 199.439 47.2484 198.847C47.5056 198.255 47.9412 197.749 48.5 197.393C49.0588 197.037 49.7158 196.847 50.3879 196.847C51.2892 196.847 52.1535 197.189 52.7908 197.796C53.4281 198.403 53.7861 199.227 53.7861 200.086Z" fill="#263238"/>
<path d="M76.6914 200.086C76.6914 200.727 76.4921 201.353 76.1187 201.886C75.7453 202.418 75.2145 202.834 74.5936 203.079C73.9727 203.324 73.2894 203.388 72.6302 203.263C71.9711 203.138 71.3656 202.83 70.8903 202.377C70.4151 201.924 70.0914 201.346 69.9603 200.718C69.8292 200.09 69.8965 199.439 70.1537 198.847C70.4109 198.255 70.8464 197.749 71.4053 197.393C71.9641 197.037 72.6211 196.847 73.2932 196.847C74.1944 196.847 75.0588 197.189 75.6961 197.796C76.3333 198.403 76.6914 199.227 76.6914 200.086Z" fill="#263238"/>
<path d="M52.0029 167.084H45.1826V169.775H52.0029V167.084Z" fill="#E0E0E0"/>
<path d="M46.4236 165.202H43.9409V171.657H46.4236V165.202Z" fill="#E0E0E0"/>
<path d="M26.0354 72.7837H46.3956V142.602H20.4756V78.0785C20.4781 76.6741 21.0649 75.3281 22.1071 74.3355C23.1493 73.343 24.562 72.7849 26.0354 72.7837Z" fill="#455A64"/>
<path d="M26.2071 141.542C26.14 141.542 26.0825 126.393 26.0825 107.709C26.0825 89.024 26.14 73.8706 26.2071 73.8706C26.2742 73.8706 26.3317 89.0194 26.3317 107.709C26.3317 126.398 26.2646 141.542 26.2071 141.542Z" fill="#263238"/>
<path d="M20.4751 142.461H84.609V150.053H24.2855C23.2686 150.053 22.2933 149.668 21.5742 148.983C20.8551 148.297 20.4512 147.368 20.4512 146.398V142.442L20.4751 142.461Z" fill="#455A64"/>
<path d="M56.777 45.1856L53.9971 70.4442C53.5178 74.7431 53.7527 81.1434 60.9133 81.5454C67.144 81.4495 69.3296 76.0177 69.7657 72.0112C69.9766 70.1062 70.1492 68.5209 70.1875 68.3291C70.1875 68.3291 76.9982 68.3976 78.1869 62.0795C78.762 59.0278 79.4043 52.6503 79.9171 46.8759C80.1824 43.8834 79.2556 40.9055 77.3211 38.535C75.3866 36.1646 72.5865 34.5756 69.4782 34.0844L68.8359 33.9793C61.8623 33.2575 57.3282 38.5066 56.777 45.1856Z" fill="#FFBE9D"/>
<path d="M70.1871 68.3154C67.121 67.8215 64.2681 66.4991 61.9673 64.5054C61.9673 64.5054 63.2662 69.4621 69.9906 69.9463L70.1871 68.3154Z" fill="#EB996E"/>
<path d="M68.2456 48.4661C68.1018 48.5803 67.3876 47.9225 66.2709 47.7946C65.1542 47.6667 64.2675 48.1189 64.162 47.9727C64.1093 47.9042 64.2723 47.6804 64.6413 47.4702C65.1617 47.1984 65.7592 47.0912 66.3476 47.1641C66.93 47.2338 67.474 47.4787 67.9005 47.8631C68.2312 48.16 68.3175 48.4113 68.2456 48.4661Z" fill="#263238"/>
<path d="M68.1358 50.91C68.099 51.1334 67.9723 51.3343 67.7825 51.4699C67.5927 51.6056 67.3549 51.6653 67.1197 51.6364C67.0045 51.6267 66.8925 51.5953 66.7902 51.5439C66.6878 51.4926 66.5972 51.4223 66.5237 51.3373C66.4501 51.2523 66.3949 51.1542 66.3615 51.0487C66.3281 50.9432 66.317 50.8324 66.3288 50.7227C66.3667 50.4999 66.4938 50.2997 66.6832 50.1643C66.8727 50.0288 67.1099 49.9686 67.3449 49.9964C67.4601 50.0061 67.5721 50.0375 67.6745 50.0889C67.7768 50.1402 67.8674 50.2104 67.941 50.2955C68.0145 50.3805 68.0697 50.4786 68.1031 50.5841C68.1365 50.6896 68.1477 50.8004 68.1358 50.91Z" fill="#263238"/>
<path d="M70.3311 56.15C70.8967 56.0758 71.4697 56.0681 72.0373 56.1272C72.3009 56.1272 72.5598 56.1272 72.6316 55.9718C72.6971 55.7172 72.6804 55.4497 72.5837 55.2043L72.1476 53.1942C71.5437 50.3299 71.1554 47.9954 71.28 47.9726C71.4047 47.9497 71.9846 50.2568 72.5837 53.112C72.7275 53.8201 72.8617 54.4825 72.9911 55.1358C73.1023 55.4617 73.0888 55.8145 72.9528 56.1317C72.9015 56.2121 72.8317 56.2802 72.7487 56.3308C72.6656 56.3815 72.5715 56.4134 72.4735 56.4241C72.3223 56.4429 72.1693 56.4429 72.0182 56.4241C71.4461 56.399 70.8795 56.3069 70.3311 56.15Z" fill="#263238"/>
<path d="M68.1597 44.414C68.0255 44.6424 67.1484 44.382 66.07 44.3409C64.9916 44.2997 64.0905 44.4459 63.9851 44.2084C63.942 44.0942 64.1289 43.8932 64.5171 43.715C65.0208 43.4941 65.5743 43.3968 66.1275 43.4318C66.6813 43.4595 67.2195 43.6164 67.6948 43.8886C68.0543 44.085 68.2172 44.3043 68.1597 44.414Z" fill="#263238"/>
<path d="M78.5937 47.3239C78.4595 47.5066 77.6064 47.2142 76.552 47.0909C75.4975 46.9675 74.606 47.0178 74.5102 46.8076C74.4718 46.7071 74.6636 46.5518 75.047 46.4285C75.5632 46.2846 76.1057 46.2472 76.6382 46.3188C77.1756 46.3846 77.6929 46.5557 78.1576 46.8213C78.5075 47.036 78.656 47.2371 78.5937 47.3239Z" fill="#263238"/>
<path d="M56.4987 49.9461C56.3932 49.8776 52.1611 47.936 51.5524 52.2851C50.9437 56.6342 55.6503 56.319 55.6743 56.1957C55.6982 56.0723 56.4987 49.9461 56.4987 49.9461Z" fill="#FFBE9D"/>
<path d="M54.5146 54.3727C54.5146 54.3727 54.4236 54.4139 54.2846 54.455C54.0837 54.5079 53.8691 54.485 53.6855 54.391C53.2062 54.1626 52.9234 53.3814 53.0145 52.5956C53.054 52.2201 53.1818 51.8578 53.3883 51.5358C53.4498 51.4052 53.5441 51.2911 53.6628 51.2035C53.7814 51.1159 53.9209 51.0574 54.0689 51.0332C54.1627 51.0216 54.2578 51.0417 54.3375 51.0901C54.4173 51.1386 54.4766 51.2123 54.5051 51.2982C54.553 51.4261 54.5051 51.5129 54.5338 51.5221C54.5626 51.5312 54.644 51.4627 54.6297 51.2754C54.622 51.1651 54.5726 51.0612 54.4907 50.983C54.377 50.8758 54.224 50.8152 54.0641 50.814C53.8717 50.8265 53.6859 50.8855 53.5241 50.9854C53.3622 51.0853 53.2297 51.2228 53.1391 51.385C52.8914 51.7354 52.7383 52.1387 52.6933 52.5591C52.6023 53.4408 52.9569 54.3225 53.5896 54.5875C53.7073 54.637 53.8352 54.6606 53.9638 54.6567C54.0924 54.6527 54.2184 54.6213 54.3325 54.5646C54.4907 54.4778 54.5434 54.3819 54.5146 54.3727Z" fill="#EB996E"/>
<path d="M68.9551 59.0602C69.0175 58.9551 68.1451 58.6034 67.5892 57.7582C67.3619 57.3839 67.1863 56.9831 67.0667 56.5659C66.9661 56.2369 66.8846 56.0268 66.8319 56.0359C66.7792 56.0451 66.7744 56.2644 66.8319 56.6161C66.8888 57.0871 67.0524 57.5407 67.3112 57.9455C67.5745 58.3534 67.951 58.6838 68.3992 58.9003C68.7059 59.0648 68.9216 59.0968 68.9551 59.0602Z" fill="#263238"/>
<path d="M51.0923 42.3398C52.1995 40.8825 52.5973 39.0643 53.2875 37.3922C53.9776 35.7202 55.1519 34.0299 56.978 33.5822L57.0163 33.605C58.6603 33.1482 60.6158 33.2989 61.8092 34.4639C62.3508 32.2208 64.6131 30.6082 66.9951 30.2336C69.3772 29.8589 73.0678 30.5305 75.215 31.6041C76.8733 32.4172 78.4071 33.9157 80.2379 36.0857C81.0141 36.9979 81.7099 37.9697 82.3181 38.9912L83.7559 45.1174L81.7237 48.0823C81.6003 48.2896 81.4659 48.4909 81.3211 48.6853L79.126 55.1222C79.1979 53.3222 79.9408 47.1001 80.0127 45.2955C78.6025 45.1311 77.2417 44.6966 76.012 44.0184C74.7823 43.3401 73.7091 42.4319 72.8569 41.3484C71.9366 40.1744 71.2608 38.7445 69.9476 37.977C68.2605 36.9856 66.1133 37.4059 64.1625 37.8628L64.2488 37.7988C63.2328 38.1434 62.2956 38.6707 61.4881 39.3521C61.5629 42.9266 60.829 46.4745 59.3361 49.7543C59.1108 50.2477 58.5357 51.2527 57.9893 51.4035C56.9253 51.6913 56.7431 50.668 56.1776 50.0832C55.7606 49.6538 55.0896 49.5396 54.3467 49.4802C53.9798 47.9496 53.7077 46.3998 53.5319 44.8387C52.8973 44.9633 52.2411 44.9461 51.6147 44.7885L52.3385 43.491C52.0764 43.6416 51.7842 43.7381 51.4805 43.7743C51.3221 43.7932 51.1615 43.763 51.0225 43.6881C50.8835 43.6132 50.7735 43.4977 50.7089 43.3585C50.589 43.0068 50.8622 42.6459 51.0923 42.3398Z" fill="#263238"/>
<path d="M63.851 35.3777C63.5955 35.5363 63.3521 35.7119 63.1224 35.9031C62.5362 36.4648 62.1134 37.1622 61.8955 37.9268C61.7289 38.4494 61.6181 38.9866 61.5647 39.5304C61.5072 40.1197 61.4977 40.7501 61.4785 41.4171C61.4731 42.1169 61.4219 42.8157 61.3251 43.5094C61.2679 43.8772 61.183 44.2406 61.0711 44.5967C60.974 44.9803 60.776 45.334 60.4959 45.6246C60.3691 45.7361 60.2144 45.8147 60.0466 45.8531C59.8788 45.8915 59.7035 45.8883 59.5374 45.8439C59.2145 45.7576 58.9311 45.5711 58.7321 45.3139C58.4178 44.806 58.2523 44.227 58.2529 43.6373L58.3871 43.6647C58.1335 44.1286 57.8106 44.5549 57.4285 44.9302C57.0655 45.2768 56.5762 45.4764 56.0625 45.4875C55.8249 45.4892 55.5912 45.4292 55.3867 45.3139C55.1977 45.198 55.0492 45.031 54.9601 44.8343C54.8776 44.6517 54.8478 44.4513 54.8739 44.2541C54.9043 44.0775 54.9973 43.9162 55.1375 43.7972L55.1998 43.8658C54.6481 44.3772 53.9576 44.7316 53.2059 44.8891C53.1532 44.9048 53.0982 44.9125 53.043 44.9119C53.0926 44.8925 53.1439 44.8772 53.1963 44.8662C53.3018 44.8343 53.4552 44.7931 53.6469 44.72C54.2011 44.513 54.7063 44.2023 55.1327 43.8064L55.1998 43.8749C55.0773 43.9988 54.9981 44.1558 54.9732 44.3244C54.9483 44.4929 54.9789 44.6647 55.0608 44.816C55.1424 44.9916 55.2777 45.1397 55.449 45.2408C55.6345 45.3458 55.8469 45.3995 56.0625 45.3962C56.5417 45.3782 56.9958 45.1871 57.3326 44.8617C57.6967 44.4926 58.0034 44.0757 58.2433 43.6236L58.3583 43.4272V43.651C58.3687 44.2162 58.534 44.769 58.8376 45.2545C59.02 45.476 59.2719 45.6361 59.5565 45.7114C59.6999 45.7513 59.8517 45.755 59.9971 45.7221C60.1424 45.6893 60.2763 45.6211 60.3857 45.5241C60.6439 45.2514 60.8267 44.9217 60.9177 44.5647C61.0296 44.2148 61.1145 43.8575 61.1717 43.4957C61.2682 42.808 61.321 42.1154 61.3299 41.4217C61.3299 40.7547 61.3682 40.1242 61.4305 39.5304C61.4909 38.9782 61.6097 38.4333 61.7852 37.904C62.0186 37.1285 62.4654 36.4266 63.0793 35.8711C63.3055 35.6663 63.5664 35.4995 63.851 35.3777Z" fill="#455A64"/>
<path d="M83.9187 43.395L83.8612 43.4316L83.6839 43.5321C83.5887 43.5891 83.4894 43.6394 83.3867 43.6828C83.2621 43.7331 83.1231 43.8016 82.9601 43.8519C82.0256 44.1578 81.0264 44.2394 80.0508 44.0894C78.5999 43.869 77.2467 43.2534 76.1542 42.3169C74.8409 41.1612 73.789 39.7621 73.0628 38.2053C72.6506 37.3921 72.3295 36.5653 71.9652 35.7978C71.6375 35.0507 71.1966 34.3535 70.6568 33.7283C70.1756 33.1602 69.5504 32.7183 68.8402 32.4446C68.5194 32.3281 68.1814 32.2603 67.8385 32.2436C67.5164 32.2316 67.194 32.2608 66.88 32.3304C65.9314 32.548 65.1044 33.0996 64.565 33.8745C64.3842 34.1625 64.2379 34.469 64.1288 34.7882C64.1257 34.7669 64.1257 34.7454 64.1288 34.7242C64.1288 34.6694 64.1576 34.61 64.1768 34.5323C64.2533 34.2869 64.3628 34.052 64.5027 33.8334C64.7257 33.4855 65.0093 33.1765 65.3414 32.9197C65.7814 32.5813 66.2933 32.3382 66.8416 32.207C67.5104 32.0426 68.2158 32.0761 68.8642 32.303C69.5962 32.5824 70.2424 33.0334 70.743 33.6141C71.2927 34.2478 71.7431 34.9541 72.0802 35.711C72.4493 36.4876 72.7704 37.3099 73.1778 38.1185C73.899 39.6555 74.9355 41.0394 76.2261 42.189C77.3002 43.117 78.6308 43.7322 80.0604 43.9615C81.0212 44.1199 82.0079 44.0541 82.9362 43.7696C83.588 43.5823 83.9091 43.3585 83.9187 43.395Z" fill="#455A64"/>
<path d="M78.407 49.7544C78.2632 49.8731 77.5491 49.2107 76.4323 49.0874C75.3156 48.964 74.4289 49.4072 74.3282 49.261C74.2755 49.1924 74.4337 48.9732 74.8075 48.7585C75.3286 48.4888 75.9259 48.3832 76.5138 48.4569C77.0966 48.5222 77.6415 48.7659 78.0667 49.1513C78.3926 49.4574 78.4789 49.7132 78.407 49.7544Z" fill="#263238"/>
<path d="M77.4577 51.7369C77.4221 51.9608 77.2956 52.1624 77.1056 52.2983C76.9155 52.4341 76.677 52.4934 76.4416 52.4633C76.3266 52.4536 76.2148 52.4221 76.1127 52.3707C76.0106 52.3193 75.9203 52.249 75.8471 52.1639C75.7739 52.0788 75.7192 51.9806 75.6863 51.8751C75.6534 51.7697 75.643 51.659 75.6555 51.5496C75.6923 51.3271 75.8184 51.127 76.0071 50.9914C76.1958 50.8559 76.4324 50.7956 76.6668 50.8232C76.782 50.8329 76.894 50.8644 76.9964 50.9157C77.0987 50.9671 77.1893 51.0373 77.2629 51.1223C77.3364 51.2073 77.3916 51.3054 77.425 51.411C77.4585 51.5165 77.4696 51.6273 77.4577 51.7369Z" fill="#263238"/>
<path d="M81.8623 38.1826C82.3416 38.9547 83.1516 39.6948 84.0958 39.6948C84.4419 39.6602 84.7848 39.6007 85.1214 39.5166C85.4282 39.7359 85.2365 40.7957 84.9777 41.0653C84.7381 41.2934 84.4784 41.5012 84.2012 41.6866C85.2365 42.3581 86.2669 42.18 87.4795 41.8922C87.2584 42.8309 86.7832 43.6981 86.1013 44.4074C85.4193 45.1167 84.5544 45.6434 83.5925 45.9352C83.2937 46.0516 82.9701 46.0986 82.6484 46.0724C82.3267 46.0462 82.0162 45.9475 81.7424 45.7844C81.3439 45.3934 81.1102 44.8763 81.0858 44.3317C80.7696 42.3666 80.7101 40.3718 80.9085 38.3928L81.8623 38.1826Z" fill="#263238"/>
<path d="M69.4823 74.241C69.4823 74.241 73.7 75.8719 76.1013 81.4362C77.7884 85.3467 87.1729 97.6905 87.1729 97.6905L112.125 102.972L112.978 110.56L73.0674 110.244L67.522 93.4099L69.4823 74.241Z" fill="#15B86C"/>
<path d="M52.6788 67.2282L48.2502 69.0008C44.1523 70.6363 38.9088 74.4052 37.1498 78.2975C32.9273 87.6718 29.1025 99.7187 27.6359 110.377C26.1549 121.126 29.1025 137.033 29.1025 137.033L66.5543 116.635L64.3639 115.178L71.4622 78.3751L70.1394 73.9209L71.0213 70.152C71.0213 70.152 61.0856 66.3511 53.8483 63.6238L52.6788 67.2282Z" fill="#15B86C"/>
<g opacity="0.3">
<path d="M49.1029 126.398C49.2403 124.571 49.3777 122.733 49.5151 120.884C49.0758 121.283 48.5009 121.518 47.8951 121.546C48.832 120.694 49.6634 119.742 50.373 118.71L48.6667 119.408C49.2685 118.967 49.7597 118.404 50.1046 117.759C49.1891 117.079 47.8999 117.193 46.7496 117.302C40.8303 117.873 34.8584 117.494 28.9152 117.115C28.3199 117.083 27.7392 116.927 27.2137 116.658C27.2137 116.658 27.0939 115.105 27.3575 114.525C27.6211 113.945 28.0333 114.114 28.6564 113.899C29.2889 113.716 29.9459 113.62 30.6071 113.616C37.8396 113.25 45.0864 113.817 52.3045 114.388C52.7546 114.381 53.1966 114.502 53.5747 114.735C54.1642 115.192 54.1115 116.051 54.0108 116.768C53.6402 119.345 53.2727 121.92 52.9084 124.493" fill="black"/>
</g>
<path d="M71.0212 76.895C71.0207 77.0115 71.0095 77.1276 70.9876 77.2422L70.8343 78.2244C70.7001 79.0741 70.4844 80.3076 70.2016 81.8243C69.636 84.8623 68.7877 89.0424 67.8051 93.6473C66.8226 98.2523 65.8257 102.414 65.1115 105.42C64.7521 106.905 64.4597 108.115 64.2488 108.979C64.1482 109.381 64.0667 109.701 64.0044 109.943C63.9821 110.057 63.9467 110.169 63.8989 110.276C63.9114 110.161 63.9306 110.047 63.9564 109.934C64.0044 109.687 64.0715 109.363 64.1577 108.961C64.3447 108.088 64.637 106.877 64.939 105.384L67.5367 93.6108C68.5432 89.0058 69.4203 84.8303 70.029 81.8015C70.3214 80.3076 70.5658 79.0878 70.7384 78.2153C70.8199 77.8133 70.887 77.4889 70.9349 77.2422C70.9513 77.124 70.9802 77.0077 71.0212 76.895Z" fill="#263238"/>
<path d="M37.1499 129.144C37.2169 129.065 37.2924 128.993 37.3752 128.929L38.0462 128.34C38.3338 128.084 38.698 127.778 39.1342 127.426C39.5703 127.074 40.0496 126.681 40.6152 126.275C41.7223 125.43 43.0883 124.484 44.646 123.493C46.2037 122.501 48.001 121.496 49.8846 120.528C51.7683 119.559 53.6806 118.755 55.4157 118.075C57.1507 117.394 58.7419 116.868 60.0983 116.476C60.7693 116.261 61.3924 116.106 61.934 115.959C62.4756 115.813 62.9453 115.699 63.3287 115.612L64.2202 115.42C64.3213 115.39 64.4259 115.371 64.5318 115.365C64.4349 115.409 64.3338 115.442 64.2298 115.466L63.3527 115.704C62.9741 115.804 62.5091 115.927 61.9723 116.087C61.4355 116.247 60.822 116.412 60.151 116.635C58.809 117.051 57.2274 117.604 55.5019 118.28C53.7765 118.956 51.912 119.783 50.0045 120.738C48.0969 121.693 46.3379 122.707 44.7706 123.675C43.2033 124.644 41.8374 125.585 40.7206 126.416C40.1503 126.814 39.6614 127.207 39.2204 127.536C38.7795 127.865 38.4104 128.166 38.1085 128.408L37.4087 128.961C37.3296 129.031 37.2428 129.092 37.1499 129.144Z" fill="#263238"/>
<path d="M56.3742 115.672C56.4078 115.731 52.7651 117.682 48.2263 120.03C43.6874 122.378 40.0064 124.237 39.9729 124.178C39.9393 124.119 43.5819 122.172 48.1208 119.82C52.6597 117.467 56.3407 115.617 56.3742 115.672Z" fill="#263238"/>
<g opacity="0.3">
<path d="M43.2129 87.4753C45.5374 97.069 52.6453 105.63 62.1065 109.536C55.3002 102.592 48.9883 95.2218 43.2129 87.4753Z" fill="black"/>
</g>
<g opacity="0.3">
<path d="M70.4267 80.1843C71.3422 84.2411 70.6616 89.3211 68.5096 92.9164L67.9775 91.8657C68.73 88.8186 69.8084 83.4142 70.4075 80.1843" fill="black"/>
</g>
<path d="M90.3366 176.988L85.8456 189.862C85.8456 189.862 98.0723 198.542 97.4828 200.995L70.978 193.594L77.1082 173.256L90.3366 176.988Z" fill="#455A64"/>
<g opacity="0.3">
<path d="M90.3366 176.988L85.8456 189.862C85.8456 189.862 98.0723 198.542 97.4828 200.995L70.978 193.594L77.1082 173.256L90.3366 176.988Z" fill="black"/>
</g>
<path d="M77.9851 186.482C77.7075 186.484 77.4407 186.584 77.2361 186.763C77.0316 186.942 76.904 187.187 76.8779 187.45C76.8697 187.715 76.9688 187.972 77.1544 188.168C77.3401 188.365 77.5981 188.486 77.8748 188.505C78.1693 188.502 78.452 188.395 78.6681 188.204C78.8841 188.013 79.0182 187.753 79.0443 187.473C79.0222 187.197 78.8884 186.939 78.6711 186.755C78.4538 186.571 78.1701 186.475 77.8796 186.486" fill="#E0E0E0"/>
<g opacity="0.6">
<path d="M70.978 193.595L71.6778 191.566L96.8309 199.419C96.8309 199.419 97.8614 200.237 97.4828 200.995L70.978 193.595Z" fill="white"/>
</g>
<path d="M86.3151 189.853C86.272 189.977 85.6106 189.853 84.8485 190.073C84.0864 190.292 83.5927 190.712 83.4873 190.63C83.3819 190.548 83.7941 189.89 84.7191 189.643C85.6441 189.396 86.3774 189.748 86.3151 189.853Z" fill="#263238"/>
<path d="M88.7593 191.726C88.7593 191.854 88.1267 191.909 87.5276 192.306C86.9284 192.704 86.6313 193.22 86.5019 193.179C86.3725 193.138 86.5019 192.421 87.2639 191.936C88.026 191.452 88.7929 191.607 88.7593 191.726Z" fill="#263238"/>
<path d="M89.3634 195.34C89.2388 195.34 89.2484 194.668 89.7852 194.083C90.322 193.499 91.0169 193.398 91.0361 193.517C91.0553 193.636 90.5568 193.891 90.1398 194.376C89.7229 194.86 89.4976 195.363 89.3634 195.34Z" fill="#263238"/>
<path d="M86.9959 186.806C86.9096 186.907 86.368 186.568 85.6204 186.413C84.8727 186.258 84.2352 186.317 84.1825 186.189C84.1298 186.061 84.8295 185.778 85.7066 185.975C86.5837 186.171 87.0918 186.733 86.9959 186.806Z" fill="#263238"/>
<path d="M98.0671 182.736L97.5064 196.295C97.5064 196.295 111.78 201.388 111.928 203.905L84.3115 203.814L84.2588 182.653L98.0671 182.736Z" fill="#455A64"/>
<path d="M88.9704 195.125C88.7039 195.201 88.4762 195.368 88.3311 195.594C88.186 195.82 88.1337 196.089 88.1843 196.349C88.2547 196.606 88.4258 196.827 88.6623 196.966C88.8987 197.106 89.1823 197.153 89.4545 197.099C89.7356 197.018 89.9751 196.84 90.1265 196.6C90.278 196.361 90.3306 196.076 90.2741 195.801C90.1732 195.541 89.9704 195.329 89.7085 195.209C89.4465 195.088 89.1457 195.07 88.8697 195.157" fill="#E0E0E0"/>
<g opacity="0.6">
<path d="M84.3115 203.814L84.393 201.681L110.845 202.562C110.845 202.562 112.072 203.079 111.928 203.905L84.3115 203.814Z" fill="white"/>
</g>
<path d="M97.9575 196.162C97.9575 196.29 97.2769 196.345 96.6107 196.756C95.9445 197.167 95.5898 197.706 95.4652 197.67C95.3406 197.633 95.5467 196.875 96.3615 196.391C97.1763 195.906 97.9863 196.043 97.9575 196.162Z" fill="#263238"/>
<path d="M100.847 197.313C100.876 197.437 100.291 197.651 99.8309 198.195C99.3708 198.739 99.2366 199.314 99.1024 199.305C98.9682 199.296 98.8867 198.574 99.4715 197.907C100.056 197.24 100.847 197.19 100.847 197.313Z" fill="#263238"/>
<path d="M102.472 200.621C102.348 200.648 102.166 200.004 102.511 199.305C102.856 198.606 103.493 198.323 103.551 198.428C103.608 198.533 103.215 198.912 102.937 199.492C102.659 200.073 102.616 200.612 102.472 200.621Z" fill="#263238"/>
<path d="M97.7224 193.056C97.6649 193.174 97.0466 192.996 96.2846 193.056C95.5225 193.115 94.9282 193.33 94.8467 193.22C94.7652 193.11 95.326 192.654 96.251 192.608C97.176 192.562 97.7895 192.955 97.7224 193.056Z" fill="#263238"/>
<path d="M64.9824 116.339C64.9824 116.339 98.0869 124.562 102.199 130.003C105.669 134.621 87.4467 181.781 87.4467 181.781L73.068 180.598L79.27 141.136L42.1777 129.898L47.7806 116.32L64.9824 116.339Z" fill="#263238"/>
<path d="M67.3542 123.73C67.3542 123.73 101.197 131.565 104.619 137.134C106.215 139.733 105.165 148.267 104.571 152.296C104.168 155.01 98.1869 192.982 98.1869 192.982H83.5542L83.8753 150.094L48.7146 143.338C48.7146 143.338 29.8402 144.708 29.1021 137.033L36.9816 126.855L55.578 118.097L67.3542 123.73Z" fill="#263238"/>
<path d="M64.776 122.743C64.776 122.743 64.9437 122.78 65.2553 122.867L66.6932 123.246L72.2146 124.717C74.611 125.357 77.5443 126.138 80.9329 127.097C84.3214 128.056 88.1606 129.217 92.3256 130.72C94.4121 131.463 96.5657 132.31 98.7864 133.26L100.464 133.982C101.029 134.245 101.58 134.536 102.113 134.854C102.658 135.18 103.173 135.55 103.651 135.96C104.148 136.376 104.565 136.873 104.883 137.426C106.024 142.369 105.334 147.774 104.485 153.297C104.116 156.079 103.642 158.916 103.196 161.817C102.75 164.718 102.276 167.687 101.801 170.702C100.843 176.737 99.884 182.987 98.8679 189.383C98.6762 190.593 98.4893 191.799 98.2975 192.996V193.101H83.4395V192.982C83.569 176.728 83.6888 162.009 83.7846 150.099L83.8613 150.186L58.8568 145.339L52.0365 144.005L50.2631 143.653C49.8605 143.571 49.6592 143.52 49.6592 143.52L50.2679 143.626L52.0508 143.954L58.8999 145.234L83.8949 149.994H83.9716V150.072C83.8901 161.981 83.7894 176.701 83.6792 192.96L83.5546 192.841H98.1825L98.0627 192.941C98.2496 191.74 98.4413 190.538 98.6283 189.328L101.566 170.648C102.046 167.626 102.512 164.664 102.966 161.762C103.416 158.861 103.896 156.024 104.27 153.242C104.468 151.853 104.661 150.483 104.849 149.13C105.051 147.799 105.176 146.459 105.223 145.115C105.271 143.79 105.271 142.485 105.223 141.2C105.195 140.556 105.156 139.921 105.099 139.29C105.093 138.672 104.961 138.06 104.71 137.49C104.406 136.957 104.005 136.479 103.527 136.079C103.059 135.676 102.556 135.314 102.022 134.996C101.496 134.678 100.952 134.388 100.392 134.128L98.7241 133.401C96.5098 132.456 94.3578 131.602 92.2777 130.857C88.1222 129.345 84.2831 128.189 80.9041 127.202C77.5251 126.215 74.5919 125.439 72.2002 124.785L66.6884 123.305L65.2505 122.903C64.939 122.798 64.776 122.743 64.776 122.743Z" fill="#455A64"/>
<path d="M111.646 103.346C111.862 103.035 114.656 99.9609 115.408 99.9609C116.161 99.9609 117.024 100.783 117.024 100.783C117.527 100.563 118.088 100.492 118.634 100.578C119.281 100.783 122.291 103.241 122.291 104.164V105.703C122.359 106.11 122.359 106.525 122.291 106.932C122.186 107.65 120.374 108.878 120.374 108.878H110.036C110.036 108.878 108.066 107.613 108.31 106.421C108.555 105.228 111.646 103.346 111.646 103.346Z" fill="#FFBE9D"/>
<path d="M117.023 100.783C117.248 100.881 117.463 100.997 117.666 101.13L119.372 102.158C119.569 102.267 119.758 102.39 119.938 102.524C120.128 102.692 120.271 102.902 120.355 103.136C120.42 103.384 120.451 103.639 120.446 103.894L120.489 104.68C120.546 105.754 120.604 106.932 120.666 108.166L120.695 108.723V108.824L120.594 108.846L119.962 108.993H119.933C119.637 108.984 119.352 108.883 119.123 108.705C118.911 108.538 118.734 108.335 118.6 108.106C118.357 107.69 118.175 107.245 118.059 106.781C117.858 106.008 117.739 105.216 117.704 104.42L117.762 104.493L115.955 103.817C115.731 103.742 115.514 103.648 115.308 103.538C115.54 103.583 115.768 103.647 115.988 103.73L117.819 104.337H117.872V104.392C117.927 105.176 118.06 105.953 118.27 106.713C118.387 107.154 118.566 107.578 118.802 107.974C118.905 108.183 119.063 108.362 119.26 108.496C119.457 108.63 119.687 108.712 119.928 108.737H119.899L120.532 108.586L120.436 108.709L120.407 108.147C120.355 106.914 120.297 105.74 120.249 104.662C120.249 104.392 120.249 104.132 120.22 103.876C120.225 103.638 120.201 103.401 120.148 103.168C120.082 102.964 119.962 102.78 119.799 102.633C119.628 102.502 119.451 102.38 119.267 102.268L117.603 101.181C117.399 101.064 117.205 100.931 117.023 100.783Z" fill="#EB996E"/>
<path d="M110.035 108.527C110.262 108.48 110.493 108.451 110.725 108.44L112.609 108.298H112.638C113.338 108.455 114.047 108.577 114.761 108.664C115.173 108.717 115.587 108.749 116.002 108.76C116.204 108.791 116.41 108.78 116.607 108.726C116.803 108.672 116.985 108.578 117.138 108.449C117.267 108.274 117.329 108.063 117.316 107.851C117.316 107.627 117.282 107.394 117.272 107.156C117.245 106.963 117.146 106.785 116.994 106.654C116.843 106.509 116.67 106.386 116.482 106.288C115.798 105.96 115.028 105.83 114.267 105.914C113.995 105.938 113.72 105.9 113.466 105.803C113.212 105.706 112.985 105.553 112.805 105.356C112.58 105.05 112.599 104.826 112.614 104.831C112.677 104.996 112.768 105.15 112.882 105.288C113.062 105.459 113.28 105.589 113.52 105.668C113.76 105.747 114.015 105.773 114.267 105.745C115.061 105.632 115.872 105.753 116.592 106.092C116.801 106.198 116.993 106.332 117.162 106.489C117.362 106.661 117.488 106.897 117.517 107.152C117.517 107.362 117.565 107.608 117.565 107.846C117.578 108.114 117.495 108.378 117.33 108.595C117.163 108.78 116.934 108.904 116.683 108.947C116.457 108.987 116.227 109.001 115.998 108.988C115.557 108.988 115.135 108.933 114.732 108.883C114.01 108.784 113.295 108.645 112.59 108.467H112.619L110.735 108.531C110.502 108.553 110.268 108.552 110.035 108.527Z" fill="#EB996E"/>
<path d="M120.556 108.486C120.795 107.875 121.074 107.278 121.39 106.699C121.633 106.085 121.955 105.502 122.348 104.963C122.183 105.597 121.94 106.211 121.624 106.791C121.38 107.413 121.018 107.988 120.556 108.486Z" fill="#EB996E"/>
<path d="M98.1588 110.564L135.395 111.021L147.377 78.978C147.505 78.6573 147.499 78.302 147.361 77.9852C147.223 77.6683 146.963 77.4138 146.634 77.274C146.457 77.1957 146.265 77.1533 146.07 77.1495C145.875 77.1456 145.681 77.1805 145.501 77.2518C145.321 77.323 145.158 77.4292 145.023 77.5636C144.888 77.698 144.784 77.8576 144.717 78.0323L132.903 108.376L98.1252 108.705C97.871 108.705 97.6272 108.801 97.4474 108.972C97.2676 109.143 97.1666 109.376 97.1666 109.618C97.1619 109.744 97.1844 109.869 97.2326 109.985C97.2808 110.102 97.3537 110.208 97.4468 110.297C97.5399 110.386 97.6511 110.455 97.7736 110.501C97.8961 110.547 98.0272 110.568 98.1588 110.564Z" fill="#263238"/>
<path d="M42.6712 86.7582C42.6712 86.7582 60.8842 110.359 63.7072 110.359H90.2838V100.765L70.1872 96.2467C70.1872 96.2467 60.2947 76.7397 58.0995 74.2408C55.9044 71.7419 50.0522 68.375 45.6763 72.1393C41.3004 75.9037 42.6712 86.7582 42.6712 86.7582Z" fill="#15B86C"/>
<path d="M90.2646 101.71L94.6214 101.377C94.6214 101.377 94.7125 99.8374 95.6663 99.2937C96.62 98.7501 96.5194 97.5715 97.1041 97.6628C97.4206 97.7222 97.7462 97.7222 98.0627 97.6628L101.672 94.7665L104.715 92.866L107.112 92.4092C107.112 92.4092 108.55 92.7701 107.112 94.0355L105.588 94.8533L104.26 96.1233L107.299 94.6979C107.438 94.6336 107.592 94.6002 107.747 94.6002C107.902 94.6002 108.055 94.6336 108.195 94.6979C109.017 95.0365 109.801 95.4544 110.534 95.9451C110.599 96.0037 110.652 96.0744 110.687 96.153C110.723 96.2316 110.742 96.3163 110.742 96.402C110.742 96.4876 110.723 96.5723 110.687 96.6509C110.652 96.7295 110.599 96.8003 110.534 96.8588L111.861 97.9461C111.861 97.9461 112.149 99.3988 110.625 99.0333L109.393 98.7638L107.744 100.29C107.744 100.29 113.261 99.2024 113.64 99.376C114.018 99.5496 114.498 100.372 113.64 101.094C112.782 101.816 109.455 101.637 108.698 102.364C107.941 103.09 102.908 107.467 101.672 107.736C100.435 108.006 90.2934 110.368 90.2934 110.368L90.2646 101.71Z" fill="#FFBE9D"/>
<path d="M111.823 97.9325C111.563 97.7809 111.313 97.613 111.075 97.4299C110.85 97.27 110.596 97.0827 110.27 96.8817C110.117 96.7812 109.957 96.6807 109.791 96.5802C109.642 96.4748 109.467 96.4072 109.283 96.3838C108.905 96.4616 108.546 96.6056 108.224 96.8086C107.898 96.9777 107.61 97.1376 107.366 97.2655C107.115 97.4338 106.845 97.5747 106.561 97.6858C106.762 97.4644 107 97.2761 107.265 97.1284C107.5 96.9731 107.783 96.7949 108.109 96.6122C108.272 96.5208 108.444 96.4295 108.626 96.3381C108.824 96.229 109.045 96.1634 109.273 96.1462C109.34 96.1335 109.408 96.1335 109.475 96.1462C109.53 96.164 109.585 96.1853 109.638 96.2102C109.735 96.255 109.829 96.3053 109.92 96.3609C110.098 96.466 110.261 96.5711 110.4 96.6807C110.702 96.8909 110.965 97.0965 111.181 97.2746C111.617 97.6492 111.852 97.9096 111.823 97.9325Z" fill="#EB996E"/>
<path d="M98.4748 97.3113C98.5131 97.3661 98.0626 97.7407 97.5162 98.225C96.9698 98.7092 96.5576 99.1112 96.5049 99.061C96.7069 98.672 96.9927 98.328 97.3436 98.0514C97.6512 97.7199 98.0397 97.4657 98.4748 97.3113Z" fill="#EB996E"/>
<path d="M58.0996 74.241C58.4904 74.6998 58.843 75.1871 59.1541 75.6983C59.782 76.6896 60.6686 78.1698 61.7327 80.0839C63.8751 83.9122 66.8227 89.4628 70.2784 96.2195L70.2113 96.1647L90.3127 100.669H90.4086V110.514H89.081H66.492H63.923C63.8113 110.52 63.6993 110.52 63.5875 110.514C63.4745 110.493 63.3649 110.458 63.2616 110.409C63.0608 110.308 62.8699 110.19 62.6912 110.057C62.3572 109.82 62.0372 109.565 61.7327 109.294C60.5685 108.25 59.463 107.147 58.4208 105.991C56.379 103.78 54.5865 101.647 52.9329 99.6915C49.6641 95.7718 47.1095 92.5328 45.3553 90.2943L43.3471 87.6994C43.1266 87.4025 42.9589 87.1787 42.8343 87.0188C42.7096 86.8589 42.6665 86.7812 42.6665 86.7812C42.6665 86.7812 42.7336 86.8543 42.8582 87.005L43.3902 87.672L45.4368 90.2303C47.215 92.4551 49.7936 95.6759 53.0767 99.5818C54.7207 101.528 56.5372 103.652 58.5789 105.859C59.6213 107.004 60.7251 108.098 61.886 109.134C62.1902 109.4 62.5103 109.649 62.8446 109.879C63.0082 109.992 63.1813 110.091 63.3623 110.176C63.5395 110.257 63.7369 110.291 63.9326 110.272H66.5016H89.0906H90.2936L90.169 110.391C90.169 107.101 90.169 103.885 90.169 100.797L90.26 100.911L70.1634 96.352H70.1155L70.0915 96.3109C66.6598 89.5451 63.7361 83.9762 61.6272 80.1433C60.5776 78.22 59.7101 76.7353 59.0966 75.7348C58.785 75.2414 58.5502 74.8577 58.3633 74.6201C58.1763 74.3826 58.0996 74.241 58.0996 74.241Z" fill="#263238"/>
<path d="M55.454 72.6967C55.454 72.7378 54.8309 72.5002 53.8148 72.2809C53.2178 72.1548 52.6125 72.0678 52.0031 72.0205C51.2581 71.966 50.5098 71.966 49.7648 72.0205C49.0219 72.0949 48.2864 72.2247 47.5648 72.4088C46.9748 72.5624 46.3967 72.7547 45.8346 72.9845C44.876 73.3819 44.3296 73.72 44.3057 73.6834C44.4138 73.5796 44.5364 73.4905 44.6699 73.4185C45.0192 73.1991 45.3844 73.0037 45.7627 72.8337C46.3238 72.5765 46.9056 72.3626 47.5025 72.1941C48.2342 71.9946 48.9834 71.8585 49.7408 71.7875C50.4997 71.7212 51.2634 71.7212 52.0222 71.7875C52.6417 71.8479 53.2553 71.9533 53.8579 72.1028C54.2617 72.2034 54.6574 72.3316 55.0418 72.4865C55.315 72.5962 55.4635 72.6784 55.454 72.6967Z" fill="#263238"/>
<path d="M66.5254 100.628C66.8222 99.8082 67.2828 99.0511 67.8818 98.3985C68.4146 97.6945 69.0871 97.0969 69.8613 96.6396C69.9092 96.6945 68.9889 97.4437 68.0735 98.5447C67.1581 99.6456 66.5973 100.66 66.5254 100.628Z" fill="#263238"/>
<path d="M65.9165 97.6858C66.9351 96.8261 68.2618 96.3729 69.6214 96.4204C69.6214 96.4935 68.7443 96.5803 67.7043 96.9366C66.6642 97.2929 65.9596 97.7452 65.9165 97.6858Z" fill="#263238"/>
<path d="M82.9938 146.951C82.6103 146.188 81.6805 145.855 80.8322 145.581C64.0905 140.437 46.1267 137.97 28.8196 140.967C26.7395 141.328 24.5922 141.798 22.9387 143.059C21.2851 144.32 20.293 146.604 21.1749 148.432L24.7264 149.519C42.4482 147.638 60.3408 147.758 78.0331 149.875C79.2265 150.021 80.4823 150.163 81.5846 149.715C82.687 149.268 83.5162 147.975 82.9938 146.951Z" fill="#455A64"/>
<path d="M63.5681 141.675C63.5301 141.682 63.4911 141.682 63.4531 141.675L63.132 141.634L61.8906 141.46C60.817 141.296 59.2593 141.058 57.323 140.848C52.288 140.281 47.2175 140.05 42.1487 140.158C40.6677 140.186 39.2202 140.254 37.835 140.364C36.4499 140.473 35.0983 140.537 33.809 140.647C33.6495 140.659 33.4892 140.659 33.3297 140.647C33.1799 140.634 33.029 140.634 32.8792 140.647C32.5758 140.667 32.2745 140.71 31.9781 140.775L30.2431 141.122C29.1263 141.36 28.1007 141.62 27.1756 141.913C25.7144 142.347 24.319 142.961 23.025 143.74C22.5457 144.019 22.2294 144.261 22.0041 144.43L21.7453 144.617C21.6878 144.658 21.6542 144.681 21.6494 144.676L21.7261 144.599L21.9705 144.393C22.2893 144.131 22.6238 143.887 22.9723 143.662C24.2562 142.842 25.653 142.195 27.1229 141.739C28.1318 141.416 29.1572 141.141 30.1952 140.917L31.935 140.56C32.2493 140.485 32.5701 140.438 32.8936 140.419C33.053 140.405 33.2134 140.405 33.3729 140.419C33.5321 140.436 33.6929 140.436 33.8521 140.419C35.1223 140.304 36.4834 140.227 37.8782 140.122C39.2729 140.017 40.7539 139.939 42.1918 139.912C47.2562 139.802 52.3221 140.054 57.347 140.665C59.2641 140.898 60.8362 141.163 61.905 141.355L63.1416 141.574L63.4579 141.638L63.5681 141.675Z" fill="#263238"/>
<path d="M21.6111 115.672L50.148 116.622C50.2475 116.625 50.345 116.649 50.4343 116.69C50.5236 116.732 50.6027 116.791 50.6664 116.864C50.7301 116.937 50.7771 117.022 50.8042 117.113C50.8313 117.204 50.838 117.3 50.8238 117.394L46.7163 150.012H53.1484L56.4651 114.105C56.5025 113.815 56.4763 113.521 56.3882 113.241C56.3 112.962 56.1519 112.703 55.9531 112.481C55.7544 112.259 55.5094 112.078 55.2336 111.951C54.9579 111.824 54.6575 111.753 54.3514 111.743L20.8442 110.601L21.6111 115.672Z" fill="#455A64"/>
<path d="M173.273 113.296H168.801V114.242L178.646 203.933H183.237L173.273 113.296Z" fill="#455A64"/>
<path d="M73.4364 113.296H77.9082V114.26L68.7298 203.906H64.1382L73.4364 113.296Z" fill="#455A64"/>
<path d="M73.4369 113.296C73.4369 113.296 73.4369 113.456 73.3986 113.753C73.3602 114.05 73.3219 114.525 73.2644 115.123C73.1445 116.325 72.972 118.097 72.7467 120.373C72.2674 124.941 71.6204 131.533 70.8008 139.711C69.1329 156.047 66.8275 178.684 64.2585 203.901L64.1387 203.769H68.7303L68.6057 203.878C72.9576 161.767 76.6434 126.092 77.8703 114.242C77.8703 113.785 77.8703 113.529 77.8703 113.278L77.9039 113.31H74.5489H73.7245H73.4513H73.7149H74.5297L77.9231 113.287H77.9566V113.324C77.9566 113.575 77.9566 113.84 77.9566 114.287C76.7536 126.138 73.135 161.799 68.8501 203.938V204.047H64.0093V203.915C66.6166 178.67 68.9603 156.006 70.6522 139.651C71.5102 131.487 72.1956 124.9 72.6748 120.345C72.9145 118.061 73.1014 116.325 73.226 115.123C73.2931 114.534 73.3411 114.082 73.3746 113.753C73.4082 113.424 73.4369 113.296 73.4369 113.296Z" fill="#263238"/>
<path d="M190.657 110.377H62.6768V114.237H190.657V110.377Z" fill="#455A64"/>
<path d="M177.031 114.242C177.031 114.306 151.523 114.361 120.067 114.361C88.6112 114.361 63.0938 114.306 63.0938 114.242C63.0938 114.178 88.5968 114.123 120.067 114.123C151.537 114.123 177.031 114.169 177.031 114.242Z" fill="#263238"/>
</svg>
