<svg width="42" height="42" viewBox="0 0 42 42" fill="none" xmlns="http://www.w3.org/2000/svg">
<path fill-rule="evenodd" clip-rule="evenodd" d="M17.3028 0.191767C8.40161 2.08219 1.90155 8.54061 0.27541 17.1095C-0.0487366 18.8166 -0.0974105 22.8195 0.186353 24.4115C1.60409 32.3635 7.35814 38.885 14.9649 41.1611C18.9171 42.3434 23.8189 42.2713 27.669 40.9744C34.1266 38.7988 39.3006 33.423 41.1815 26.9348C41.8271 24.7079 41.9986 23.452 42 20.9368C42.0063 10.9769 35.2962 2.654 25.4629 0.424242C23.8408 0.0562497 23.0791 -0.0129532 20.8183 0.00182417C19.331 0.0115556 17.749 0.096976 17.3028 0.191767ZM30.3643 13.56C28.6797 14.3241 28.1437 16.6054 29.3202 18.0032C30.6212 19.5487 32.7195 19.4403 33.9623 17.7637C34.2441 17.3836 34.3395 16.988 34.3395 16.2C34.3395 15.069 34.0436 14.4838 33.1249 13.7981C32.5282 13.3528 31.094 13.2292 30.3643 13.56ZM10.5423 17.1753C9.0472 17.8395 8.35366 19.8453 9.16619 21.1558C9.35043 21.4531 11.4442 23.6551 13.8191 26.0492C18.4604 30.7283 18.8241 30.9914 20.2708 30.7201C21.1921 30.5473 22.2615 29.534 22.4957 28.6118C22.5992 28.2046 22.6561 27.7794 22.6224 27.6672C22.5887 27.5551 22.5081 27.2199 22.4434 26.9225C22.2983 26.2558 13.7365 17.5566 12.8466 17.1717C12.1252 16.8597 11.2493 16.861 10.5423 17.1753ZM24.5952 19.3369C22.7764 20.1288 22.3468 22.5457 23.7717 23.9703C25.7972 25.995 29.1163 24.1815 28.5834 21.3412C28.4464 20.6115 27.752 19.7227 27.0256 19.3472C26.3973 19.0224 25.3279 19.0179 24.5952 19.3369Z" fill="#15B86C"/>
</svg>
