<svg width="28" height="28" viewBox="0 0 28 28" fill="none" xmlns="http://www.w3.org/2000/svg">
<path d="M7.0439 21.2188C6.82515 21.1751 6.65015 21.1313 6.4314 21.0438C6.21265 20.9563 6.03765 20.9125 5.86265 20.825C5.4689 20.65 5.1189 20.4313 4.7689 20.1688C4.0689 19.6875 3.50015 19.0313 3.06265 18.2438C2.62515 17.5001 2.36265 16.625 2.3189 15.7938C2.27515 15.3563 2.3189 14.9625 2.36265 14.525C2.4064 14.3063 2.45015 14.1313 2.4939 13.9125C2.53765 13.6938 2.62515 13.5188 2.6689 13.3L2.71265 13.9125C2.71265 14.1313 2.7564 14.3063 2.80015 14.525C2.8439 14.9188 2.9314 15.3125 3.0189 15.6625C3.1939 16.4063 3.4564 17.1063 3.85015 17.7625C4.2439 18.4188 4.6814 19.0313 5.25015 19.6C5.51265 19.8625 5.8189 20.125 6.12515 20.3875C6.2564 20.5188 6.4314 20.6501 6.6064 20.7813L7.0439 21.2188Z" fill="#C6C6C6"/>
<path d="M6.9125 22.7938C6.78125 22.8813 6.60625 22.925 6.43125 22.9688C6.25625 23.0125 6.125 23.0563 5.95 23.0563C5.64375 23.1 5.29375 23.1438 4.94375 23.1C4.2875 23.0563 3.5875 22.8813 3.01875 22.575C2.40625 22.2688 1.88125 21.7875 1.53125 21.2188C1.35625 20.9563 1.18125 20.65 1.05 20.3438C1.00625 20.2125 0.9625 20.0375 0.91875 19.8625C0.91875 19.7313 0.875 19.6 0.875 19.425C1.00625 19.5563 1.09375 19.6438 1.18125 19.775C1.3125 19.9063 1.4 20.0375 1.4875 20.125C1.70625 20.3438 1.88125 20.5625 2.1 20.7375C2.5375 21.1313 2.975 21.4813 3.5 21.7438C3.98125 22.0063 4.55 22.225 5.075 22.4C5.3375 22.4875 5.64375 22.5313 5.95 22.6188C6.08125 22.6625 6.25625 22.6625 6.3875 22.7063C6.60625 22.75 6.7375 22.75 6.9125 22.7938Z" fill="#C6C6C6"/>
<path d="M16.7998 1.53125C17.0186 1.575 17.1936 1.6625 17.4123 1.75C17.6311 1.8375 17.8061 1.925 17.9811 2.0125C18.3748 2.23125 18.7248 2.45 19.0748 2.7125C19.7748 3.2375 20.3436 3.9375 20.7373 4.725C21.1311 5.5125 21.3498 6.3875 21.3498 7.21875C21.3498 7.65625 21.3061 8.05 21.2186 8.4875C21.1748 8.70625 21.1311 8.88125 21.0436 9.1C20.9561 9.31875 20.9123 9.49375 20.8248 9.66875L20.7811 9.05625C20.7811 8.8375 20.7811 8.6625 20.7373 8.44375L20.6061 7.2625C20.4748 6.51875 20.2123 5.775 19.8623 5.075C19.5123 4.375 19.0748 3.7625 18.5498 3.19375C18.2873 2.8875 17.9811 2.625 17.7186 2.31875C17.5873 2.1875 17.4123 2.05625 17.2373 1.925L16.7998 1.53125Z" fill="#C6C6C6"/>
<path d="M20.6064 1.3562C20.7814 1.39995 20.9127 1.4437 21.0439 1.5312C21.1752 1.57495 21.3502 1.66245 21.4814 1.74995C21.7439 1.92495 22.0064 2.09995 22.2689 2.3187C22.7502 2.7562 23.1439 3.2812 23.3627 3.8937C23.6252 4.5062 23.7127 5.16245 23.6252 5.8187C23.5814 6.12495 23.4939 6.4312 23.4064 6.73745C23.3627 6.8687 23.2752 7.0437 23.2314 7.17495C23.1439 7.3062 23.1002 7.43745 22.9689 7.5687V6.6937C22.9689 6.38745 22.9252 6.12495 22.9252 5.86245C22.8377 5.2937 22.7502 4.7687 22.5314 4.28745C22.3127 3.76245 22.0502 3.32495 21.7439 2.8437C21.5689 2.62495 21.3939 2.36245 21.2189 2.1437C21.1314 2.01245 21.0439 1.92495 20.9127 1.7937C20.8252 1.57495 20.6939 1.4437 20.6064 1.3562Z" fill="#C6C6C6"/>
<path d="M4.37511 7.87499C3.50011 8.26874 3.19386 9.31874 3.58761 10.1937L9.10011 21.7L12.1626 20.2562L6.65011 8.70624C6.25636 7.83124 5.25011 7.43749 4.37511 7.87499Z" fill="#FED0AC"/>
<path d="M18.8561 17.0187L22.0936 15.4875L15.7936 2.36249C15.3561 1.48749 14.3061 1.09374 13.3874 1.53124C12.5124 1.96874 12.1186 3.01874 12.5561 3.93749L18.8561 17.0187Z" fill="#FED0AC"/>
<path d="M13.4314 1.48757C13.3439 1.53132 13.2564 1.57507 13.1689 1.66257C14.0002 1.44382 14.8752 1.83757 15.2689 2.62507L21.5689 15.7501L22.1377 15.4876L15.8377 2.36257C15.4002 1.44382 14.3502 1.05007 13.4314 1.48757Z" fill="#E0A372"/>
<path d="M12.1627 20.2125L15.5315 18.5938L9.10021 5.20625C8.66271 4.2875 7.52521 3.85 6.60646 4.2875C5.68771 4.725 5.29396 5.8625 5.73146 6.78125L12.1627 20.2125Z" fill="#FED0AC"/>
<path d="M6.60625 4.33113C6.51875 4.37488 6.43125 4.41863 6.34375 4.50613C7.175 4.28738 8.1375 4.68113 8.53125 5.51238L12.5125 13.8686L13.475 14.4374L9.1 5.24988C8.6625 4.28738 7.56875 3.89363 6.60625 4.33113Z" fill="#E0A372"/>
<path d="M15.0065 17.5439L18.3752 15.9251L11.944 2.53761C11.5065 1.61886 10.369 1.18136 9.45021 1.66261C8.53146 2.10011 8.13771 3.23761 8.57521 4.15636L15.0065 17.5439Z" fill="#FED0AC"/>
<path d="M9.45 1.61872C9.3625 1.66247 9.275 1.74997 9.1875 1.79372C10.0188 1.57497 10.9813 1.96872 11.375 2.79997L15.8812 12.25L16.8438 12.8187L11.9437 2.53747C11.5062 1.57497 10.3688 1.18122 9.45 1.61872Z" fill="#E0A372"/>
<path d="M4.3748 7.87502C4.2873 7.91877 4.1998 7.96252 4.1123 8.05002C4.8998 7.83127 5.73105 8.22502 6.08105 9.01252L9.3623 15.8813L10.3248 16.45L6.6498 8.75002C6.25605 7.83127 5.2498 7.43752 4.3748 7.87502Z" fill="#E0A372"/>
<path d="M26.6 6.56253C25.4187 5.64378 23.4937 6.65003 22.5312 9.80003C21.875 11.9875 21.7875 12.6438 20.3875 13.3L19.6 11.6813C19.6 11.6813 7.17496 17.675 7.65621 18.6375C7.65621 18.6375 9.14371 23.275 11.6812 25.4188C15.4437 28.6563 24.2375 25.2 24.6312 16.8438C24.85 11.9875 27.8687 7.56878 26.6 6.56253Z" fill="#FED0AC"/>
<path d="M26.5998 6.5626C26.3811 6.3876 26.1186 6.3001 25.8561 6.25635C25.8998 6.3001 25.9873 6.3001 26.0311 6.34385C27.3436 7.3501 25.9873 9.66885 25.2436 11.7688C24.6311 13.4313 24.1061 15.1376 24.1936 16.8001C24.5436 24.0626 17.2373 27.5189 12.8623 26.2064C17.1498 28.0001 25.1123 24.5876 24.7623 17.0188C24.6748 15.3563 25.1561 13.7376 25.8123 11.9876C26.5123 9.8876 27.8686 7.56885 26.5998 6.5626Z" fill="#E0A372"/>
<path d="M20.7809 13.125C18.0684 13.4313 14.0871 17.325 16.8871 21.5688C14.8309 17.2812 18.1996 14.3938 20.3434 13.3875C20.5621 13.2125 20.7809 13.125 20.7809 13.125Z" fill="#E0A372"/>
</svg>
